<?xml version="1.0" encoding="utf-8"?>
<!-- Generator: Adobe Illustrator 23.0.1, SVG Export Plug-In . SVG Version: 6.00 Build 0)  -->
<svg version="1.1" id="Layer_1" xmlns="http://www.w3.org/2000/svg" xmlns:xlink="http://www.w3.org/1999/xlink" x="0px" y="0px"
	 viewBox="0 0 88 88" style="enable-background:new 0 0 88 88;" xml:space="preserve">
<style type="text/css">
	.st0{fill-rule:evenodd;clip-rule:evenodd;}
</style>
<path d="M44,4c22.06,0,40,17.94,40,40S66.06,84,44,84C21.94,84,4,66.06,4,44S21.94,4,44,4 M44,0C19.7,0,0,19.7,0,44s19.7,44,44,44
	c24.3,0,44-19.7,44-44S68.3,0,44,0L44,0z"/>
<path class="st0" d="M46.63,70h-9.75V47H32v-7.93h4.87v-4.76c0-6.47,2.75-10.31,10.57-10.31h6.51v7.93h-4.07
	c-3.04,0-3.25,1.11-3.25,3.17l-0.01,3.97H54L53.14,47h-6.51L46.63,70L46.63,70L46.63,70z"/>
</svg>
