<?xml version="1.0" encoding="utf-8"?>
<!-- Generator: Adobe Illustrator 23.0.1, SVG Export Plug-In . SVG Version: 6.00 Build 0)  -->
<svg version="1.1" id="Layer_1" xmlns="http://www.w3.org/2000/svg" xmlns:xlink="http://www.w3.org/1999/xlink" x="0px" y="0px"
	 viewBox="0 0 88 88" style="enable-background:new 0 0 88 88;" xml:space="preserve">
<style type="text/css">
	.st0{fill-rule:evenodd;clip-rule:evenodd;}
</style>
<path d="M44,4c22.06,0,40,17.94,40,40S66.06,84,44,84C21.94,84,4,66.06,4,44S21.94,4,44,4 M44,0C19.7,0,0,19.7,0,44s19.7,44,44,44
	c24.3,0,44-19.7,44-44S68.3,0,44,0L44,0z"/>
<path class="st0" d="M26.02,24v7.25c16.93,0.01,30.7,13.8,30.71,30.75H64c0-10.47-4.26-19.97-11.14-26.85
	C45.97,28.27,36.49,24,26.02,24L26.02,24L26.02,24z M26,36.92v7.25c4.73,0,9.22,1.86,12.57,5.22c3.36,3.35,5.21,7.84,5.21,12.59V62
	h7.29c-0.01-6.91-2.82-13.17-7.36-17.72C39.18,39.74,32.92,36.93,26,36.92L26,36.92L26,36.92z M27.48,60.48L27.48,60.48L27.48,60.48
	L27.48,60.48L27.48,60.48L27.48,60.48z M34.61,53.37c0.92,0.92,1.48,2.17,1.49,3.56c0,1.39-0.56,2.63-1.48,3.55l0,0
	c-0.92,0.91-2.17,1.47-3.57,1.47c-1.4,0-2.65-0.56-3.57-1.48C26.57,59.56,26,58.32,26,56.93c0-1.39,0.57-2.64,1.48-3.56
	c0.92-0.91,2.17-1.48,3.57-1.48C32.44,51.89,33.69,52.46,34.61,53.37L34.61,53.37L34.61,53.37z M34.61,53.37"/>
</svg>
