<?xml version="1.0" encoding="utf-8"?>
<!-- Generator: Adobe Illustrator 23.0.1, SVG Export Plug-In . SVG Version: 6.00 Build 0)  -->
<svg version="1.1" id="Layer_1" xmlns="http://www.w3.org/2000/svg" xmlns:xlink="http://www.w3.org/1999/xlink" x="0px" y="0px"
	 viewBox="0 0 88 88" style="enable-background:new 0 0 88 88;" xml:space="preserve">
<style type="text/css">
	.st0{fill-rule:evenodd;clip-rule:evenodd;}
	.st1{fill-rule:evenodd;clip-rule:evenodd;fill:#FFFFFF;}
</style>
<path d="M44,4c22.06,0,40,17.94,40,40S66.06,84,44,84C21.94,84,4,66.06,4,44S21.94,4,44,4 M44,0C19.7,0,0,19.7,0,44s19.7,44,44,44
	c24.3,0,44-19.7,44-44S68.3,0,44,0L44,0z"/>
<path class="st0" d="M45.38,44c0,5.52-4.34,10-9.7,10C30.34,54,26,49.52,26,44c0-5.52,4.34-10,9.69-10
	C41.05,34,45.38,38.48,45.38,44"/>
<g>
	<ellipse class="st1" cx="52.31" cy="44" rx="9.19" ry="9.5"/>
	<path d="M52.31,35C57.1,35,61,39.04,61,44s-3.9,9-8.69,9s-8.69-4.04-8.69-9S47.51,35,52.31,35 M52.31,34c-5.35,0-9.69,4.48-9.69,10
		s4.34,10,9.69,10S62,49.52,62,44S57.66,34,52.31,34L52.31,34z"/>
</g>
</svg>
