<?xml version="1.0" encoding="utf-8"?>
<!-- Generator: Adobe Illustrator 16.0.4, SVG Export Plug-In . SVG Version: 6.00 Build 0)  -->
<!DOCTYPE svg PUBLIC "-//W3C//DTD SVG 1.1//EN" "http://www.w3.org/Graphics/SVG/1.1/DTD/svg11.dtd">
<svg version="1.1" id="Layer_1" xmlns="http://www.w3.org/2000/svg" xmlns:xlink="http://www.w3.org/1999/xlink" x="0px" y="0px"
	 width="214.56px" height="130.292px" viewBox="0 0 214.56 130.292" enable-background="new 0 0 214.56 130.292"
	 xml:space="preserve">
<g>
	<path fill="#FFFFFF" d="M186.734,74.863c1.68,0.038,2.674,0.453,2.727,1.146l0.025,0.271c0.016,0.269,0.049,0.83,0.617,0.83
		c0.33,0,0.521-0.238,0.57-0.746c0-0.353,0.021-1.011,0.041-1.634c0.018-0.566,0.035-1.105,0.035-1.364c0-0.306,0-0.877-0.545-0.877
		c-0.107,0-0.242,0.027-0.484,0.078l-0.277,0.056c-0.393,0.052-0.93,0.123-1.719,0.123H177.49c-0.816,0-1.795-0.049-2.561-0.127
		c-0.342-0.028-0.553-0.12-0.721-0.194c-0.139-0.06-0.266-0.117-0.416-0.117c-0.461,0-0.582,0.505-0.639,0.747
		c-0.027,0.107-0.551,2.568-0.551,3.052c0,0.618,0.309,0.749,0.566,0.749c0.213,0,0.492-0.098,0.611-0.563
		c0.033-0.129,0.127-0.402,0.391-0.799c0.289-0.424,0.771-0.554,2.24-0.604l3.508-0.096v10.258c0,2.359,0,4.398-0.129,5.469
		c-0.076,0.75-0.217,1.078-0.488,1.133c-0.186,0.041-0.477,0.096-0.857,0.096c-0.674,0-0.748,0.377-0.748,0.539
		c0,0.223,0.109,0.594,0.852,0.594c0.592,0,1.375-0.025,2.053-0.047c0.504-0.018,0.949-0.031,1.203-0.031
		c0.283,0,0.705,0.012,1.219,0.027c0.795,0.021,1.803,0.051,2.84,0.051c0.787,0,0.826-0.494,0.826-0.594
		c0-0.127-0.053-0.539-0.748-0.539c-0.371,0-0.92-0.051-1.273-0.102c-0.475-0.064-0.635-0.311-0.721-1.104
		c-0.127-1.094-0.127-3.133-0.127-5.492V74.793L186.734,74.863z"/>
	<path fill="#FFFFFF" d="M60.49,90.652c-0.081,0.779-0.226,0.947-0.491,1.002c-0.29,0.062-0.57,0.096-0.855,0.096
		c-0.676,0-0.748,0.377-0.748,0.539c0,0.223,0.11,0.594,0.85,0.594c0.59,0,1.374-0.025,2.051-0.047
		c0.507-0.018,0.953-0.031,1.207-0.031c0.271,0,0.682,0.012,1.182,0.027c0.791,0.021,1.805,0.051,2.848,0.051
		c0.79,0,0.83-0.494,0.83-0.594c0-0.127-0.054-0.539-0.75-0.539c-0.373,0-0.921-0.051-1.272-0.102
		c-0.51-0.068-0.671-0.279-0.749-0.967c-0.1-1.096-0.1-3.096-0.1-5.629v-4.551c0-3.936,0-4.644,0.052-5.464
		c0.048-0.895,0.249-1.081,0.674-1.161c0.304-0.048,0.491-0.071,0.724-0.071c0.652,0,0.749-0.372,0.749-0.593
		c0-0.361-0.295-0.543-0.878-0.543c-0.548,0-1.261,0.024-1.899,0.045c-0.509,0.017-0.969,0.032-1.255,0.032
		c-0.347,0-0.885-0.017-1.459-0.035c-0.665-0.021-1.377-0.042-1.903-0.042c-0.261,0-0.953,0-0.953,0.543
		c0,0.221,0.097,0.593,0.746,0.593c0.33,0,0.622,0.031,0.859,0.096c0.269,0.061,0.561,0.204,0.618,1.14
		c0.051,0.817,0.051,1.526,0.051,5.461v4.551C60.618,87.582,60.618,89.582,60.49,90.652z"/>
	<path fill="#FFFFFF" d="M78.659,73.805c0.671,0,0.723-0.436,0.723-0.568c0-0.259-0.161-0.567-0.929-0.567
		c-0.762,0-1.505,0.026-2.122,0.049c-0.428,0.016-0.793,0.028-1.057,0.028c-0.404,0-0.921-0.015-1.492-0.032
		c-0.709-0.022-1.5-0.045-2.258-0.045c-0.327,0-1.007,0-1.007,0.567c0,0.133,0.046,0.568,0.644,0.568c0.188,0,0.578,0,0.921,0.091
		c0.825,0.229,1.189,0.44,1.743,1.769l6.515,15.794c0.526,1.299,0.723,1.785,1.293,1.785c0.551,0,0.734-0.41,1.343-1.773l0.151-0.34
		c0.231-0.521,0.567-1.297,0.995-2.281c0.63-1.447,1.458-3.355,2.446-5.604c0.576-1.314,1.034-2.324,1.444-3.229
		c0.572-1.264,1.065-2.354,1.657-3.781c0.671-1.59,1.024-1.987,1.3-2.178c0.381-0.254,0.855-0.254,1.083-0.254
		c0.675,0,0.747-0.396,0.747-0.568c0-0.377-0.296-0.567-0.879-0.567c-0.446,0-1.036,0.025-1.544,0.047
		c-0.372,0.016-0.699,0.03-0.884,0.03c-0.11,0-0.305-0.008-0.562-0.021c-0.521-0.023-1.292-0.057-2.153-0.057
		c-0.343,0-1.056,0-1.056,0.594c0,0.247,0.133,0.542,0.772,0.542c0.392,0,0.704,0.037,0.927,0.109
		c0.072,0.024,0.108,0.084,0.108,0.177c0,0.172-0.087,0.516-0.212,0.842c-0.386,1.061-1.856,4.745-3.154,7.993
		c-0.64,1.602-1.244,3.115-1.671,4.197L78.3,76.062c-0.499-1.278-0.573-1.721-0.573-1.87c0-0.152,0.048-0.218,0.129-0.274
		C77.955,73.843,78.225,73.805,78.659,73.805z"/>
	<path fill="#FFFFFF" d="M39.75,84.925c1.078,1.068,2.255,2.252,3.384,3.387c1.681,1.689,3.268,3.287,4.24,4.211
		c0.32,0.324,0.697,0.67,1.117,0.67c0.672,0,0.672-0.857,0.672-1.133l0.284-16.311c0.024-1.441,0.24-1.745,0.703-1.878
		c0.269-0.066,0.447-0.066,0.695-0.066c0.721,0,0.798-0.396,0.798-0.568c0-0.567-0.675-0.567-0.929-0.567
		c-0.868,0-1.604,0.036-2.075,0.059c-0.214,0.011-0.371,0.019-0.458,0.019c-0.209,0-0.521-0.012-0.903-0.026
		c-0.612-0.023-1.4-0.051-2.227-0.051c-0.326,0-1.005,0-1.005,0.567c0,0.213,0.097,0.568,0.747,0.568c0.321,0,0.919,0,1.241,0.127
		c0.39,0.164,0.647,0.394,0.673,2.026l0.242,10.897c-0.344-0.355-0.837-0.873-1.374-1.436c-1.265-1.326-2.839-2.977-3.855-3.992
		c-3.958-3.932-7.965-8.249-8.005-8.291l-0.24-0.262c-0.327-0.361-0.585-0.645-0.961-0.645c-0.669,0-0.669,0.914-0.669,1.209
		l-0.232,15.304c-0.026,2.189-0.137,2.756-0.558,2.887c-0.377,0.105-0.875,0.119-1.072,0.119c-0.676,0-0.748,0.377-0.748,0.539
		c0,0.594,0.657,0.594,0.904,0.594c0.955,0,1.845-0.039,2.367-0.061c0.209-0.01,0.357-0.018,0.423-0.018
		c0.169,0,0.405,0.01,0.71,0.021c0.578,0.023,1.4,0.057,2.496,0.057c0.617,0,0.93-0.199,0.93-0.594c0-0.246-0.134-0.539-0.775-0.539
		c-0.329,0-0.815-0.018-1.234-0.166c-0.417-0.145-0.639-0.982-0.68-2.561l-0.264-10.049c0.009,0.01,0.019,0.02,0.028,0.029
		C35.228,80.201,37.494,82.691,39.75,84.925z"/>
	<path fill="#FFFFFF" d="M124.828,84.843c0.154,0,0.18,0.021,0.215,0.062c0.18,0.209,0.65,0.879,1.195,1.654
		c0.422,0.602,0.898,1.279,1.346,1.895c1.57,2.158,2.518,3.291,3.652,3.895c0.746,0.402,1.457,0.533,2.924,0.533h2.457
		c0.682,0,0.826-0.322,0.826-0.594c0-0.268-0.199-0.539-0.645-0.539c-0.172,0-0.383-0.025-0.686-0.078
		c-0.369-0.072-1.35-0.268-2.691-1.654c-1.312-1.381-2.809-3.268-4.701-5.658l-0.686-0.861c2.297-1.932,3.283-3.691,3.283-5.84
		c0-1.736-0.988-3.198-1.906-3.819c-1.502-1.032-3.342-1.17-4.945-1.17c-0.393,0-1.064,0.019-1.752,0.037
		c-0.713,0.02-1.445,0.04-1.893,0.04c-0.207,0-0.576-0.012-1.027-0.026c-0.729-0.022-1.672-0.051-2.514-0.051
		c-0.248,0-0.904,0-0.904,0.567c0,0.213,0.1,0.568,0.773,0.568c0.375,0,0.773,0.029,0.939,0.068
		c0.641,0.138,0.799,0.355,0.848,1.167c0.051,0.817,0.051,1.526,0.051,5.461v4.551c0,2.359,0,4.398-0.125,5.459
		c-0.111,0.801-0.234,1.09-0.492,1.143c-0.186,0.041-0.477,0.096-0.857,0.096c-0.674,0-0.748,0.377-0.748,0.539
		c0,0.178,0.084,0.594,0.852,0.594c0.613,0,1.439-0.027,2.113-0.049c0.457-0.016,0.842-0.029,1.041-0.029
		c0.129,0,0.428,0.01,0.828,0.021c0.795,0.023,1.975,0.057,2.973,0.057c0.768,0,0.85-0.416,0.85-0.594
		c0-0.268-0.199-0.539-0.646-0.539c-0.297,0-0.852-0.053-1.219-0.102c-0.473-0.064-0.637-0.316-0.723-1.131
		c-0.125-1.066-0.125-3.117-0.125-5.492v-0.23L124.828,84.843z M122.705,74.643c0.26-0.08,0.852-0.09,1.273-0.09
		c1.342,0,3.617,0.927,3.617,4.398c0,2.254-0.869,3.229-1.385,3.605c-0.373,0.268-0.623,0.377-1.639,0.377
		c-0.711,0-1.406-0.09-1.85-0.227c-0.002-0.006-0.014-0.041-0.014-0.164L122.705,74.643z"/>
	<path fill="#FFFFFF" d="M98.646,90.511c-0.109,0.801-0.232,1.09-0.49,1.143c-0.187,0.041-0.478,0.096-0.856,0.096
		c-0.652,0-0.749,0.338-0.749,0.539c0,0.223,0.11,0.594,0.85,0.594c0.253,0,0.544-0.012,0.845-0.025
		c0.312-0.014,0.637-0.027,0.954-0.027c0.61-0.025,1.174-0.025,1.455-0.025c0.001,0,0.002,0,0.004,0
		c0.735,0,1.509,0.023,2.681,0.078l0.747,0.02c0.991,0.025,2.204,0.059,3.732,0.059c0.982,0,1.474,0,1.721-0.926
		c0.137-0.543,0.347-2.336,0.347-2.951c0-0.24,0-0.801-0.541-0.801c-0.494,0-0.576,0.447-0.616,0.666
		c-0.164,0.975-0.419,1.41-0.972,1.666c-0.606,0.281-1.661,0.281-2.291,0.281c-2.606,0-2.725-0.385-2.768-1.852
		c-0.017-0.525-0.01-1.857-0.004-2.928l0.007-3.031c0.874,0.002,3.03,0.029,3.453,0.074c0.876,0.098,1.078,0.438,1.158,0.75
		c0.05,0.223,0.064,0.445,0.076,0.643l0.017,0.215c0,0.338,0.228,0.564,0.567,0.564c0.378,0,0.569-0.277,0.569-0.822
		c0-0.092,0.022-0.416,0.045-0.773c0.022-0.334,0.046-0.699,0.057-0.934c0.067-0.863,0.137-1.334,0.173-1.598
		c0.023-0.158,0.035-0.256,0.035-0.316c0-0.324-0.208-0.541-0.518-0.541c-0.268,0-0.43,0.186-0.659,0.445
		c-0.141,0.154-0.408,0.227-1.024,0.279c-0.36,0.031-1.796,0.049-3.953,0.051l0.003-6.414c0.78,0.008,3.097,0.058,3.477,0.102
		c1.234,0.147,1.343,0.426,1.461,0.727c0.096,0.231,0.131,0.606,0.131,0.802c0,0.627,0.394,0.695,0.563,0.695
		c0.177,0,0.487-0.072,0.591-0.562c0.035-0.204,0.063-0.658,0.098-1.229c0.015-0.224,0.025-0.413,0.035-0.512
		c0.05-0.781,0.123-1.166,0.167-1.396c0.026-0.141,0.04-0.232,0.04-0.307c0-0.539-0.408-0.566-0.49-0.566
		c-0.13,0-0.248,0.038-0.354,0.072c-0.042,0.014-0.084,0.028-0.143,0.04c-0.206,0.052-0.675,0.107-1.043,0.146
		c-0.309,0.017-2.658,0.025-6.448,0.025c-0.318,0-0.819-0.02-1.395-0.042l-0.234-0.008c-0.315,0-0.655-0.007-1.001-0.013
		c-0.364-0.007-0.736-0.013-1.094-0.013c-0.247,0-0.902,0-0.902,0.567c0,0.213,0.1,0.568,0.774,0.568
		c0.374,0,0.772,0.028,0.937,0.068c0.64,0.136,0.799,0.354,0.848,1.167c0.051,0.817,0.051,1.526,0.051,5.461v4.551
		C98.773,87.412,98.773,89.451,98.646,90.511z"/>
	<path fill="#FFFFFF" d="M213.212,72.669c-0.238,0-0.762,0.018-1.305,0.037c-0.574,0.02-1.17,0.04-1.461,0.04
		c-0.357,0-0.734-0.019-1.123-0.037c-0.424-0.02-0.863-0.041-1.309-0.041c-0.512,0-0.771,0.19-0.771,0.567
		c0,0.425,0.453,0.525,0.723,0.586c0.238,0.055,0.285,0.158,0.285,0.32c0,0.314-0.111,0.719-0.334,1.205
		c-0.174,0.386-1.078,2.007-1.953,3.576c-0.652,1.17-1.279,2.295-1.637,2.969l-0.248-0.428c-1.059-1.834-3.539-6.13-3.828-6.748
		c-0.184-0.371-0.277-0.616-0.277-0.729c0-0.043,0.023-0.122,0.113-0.143l0.137-0.036c0.32-0.083,0.682-0.178,0.682-0.572
		c0-0.095-0.035-0.567-0.723-0.567c-0.695,0-1.354,0.027-1.891,0.049c-0.355,0.016-0.656,0.028-0.873,0.028
		c-0.488,0-1.336-0.026-2.055-0.048c-0.537-0.015-1.004-0.029-1.203-0.029c-0.768,0-0.826,0.435-0.826,0.567
		c0,0.095,0.033,0.568,0.721,0.568c0.225,0,0.607,0.122,0.918,0.29c0.482,0.28,1.109,0.947,1.674,1.784
		c0.914,1.355,4.352,7.005,4.525,7.4c0.326,0.727,0.561,1.252,0.561,2.572v2.121c0,0.406,0,1.486-0.076,2.562
		c-0.023,0.381-0.127,1.035-0.537,1.119c-0.293,0.062-0.564,0.096-0.832,0.096c-0.695,0-0.75,0.412-0.75,0.539
		c0,0.594,0.682,0.594,0.904,0.594c0.527,0,1.258-0.023,1.918-0.045c0.537-0.016,1.023-0.033,1.314-0.033
		c0.273,0,0.691,0.012,1.197,0.027c0.781,0.021,1.77,0.051,2.758,0.051c0.793,0,0.877-0.416,0.877-0.594
		c0-0.127-0.053-0.539-0.748-0.539c-0.35,0-0.902-0.053-1.248-0.102c-0.422-0.057-0.715-0.268-0.771-1.115
		c-0.076-1.074-0.076-2.154-0.076-2.561v-2.121c0-0.852,0-1.588,0.359-2.455c0.443-1.061,4.027-7.092,4.891-8.138
		c0.547-0.672,0.799-0.948,1.293-1.184c0.348-0.184,0.789-0.27,0.979-0.27c0.789,0,0.828-0.494,0.828-0.593
		C214.013,73.009,213.91,72.669,213.212,72.669z"/>
	<path fill="#FFFFFF" d="M160.792,90.652c-0.084,0.779-0.229,0.947-0.49,1.002c-0.188,0.041-0.479,0.096-0.857,0.096
		c-0.676,0-0.75,0.377-0.75,0.539c0,0.178,0.084,0.594,0.854,0.594c0.59,0,1.373-0.025,2.049-0.047
		c0.508-0.018,0.951-0.031,1.207-0.031c0.271,0,0.682,0.012,1.184,0.027c0.793,0.021,1.807,0.051,2.85,0.051
		c0.787,0,0.826-0.494,0.826-0.594c0-0.127-0.053-0.539-0.75-0.539c-0.367,0-0.918-0.051-1.273-0.102
		c-0.508-0.068-0.668-0.277-0.744-0.967c-0.102-1.096-0.102-3.096-0.102-5.629v-4.551c0-3.936,0-4.645,0.051-5.462
		c0.051-0.902,0.244-1.082,0.676-1.163c0.303-0.048,0.488-0.071,0.721-0.071c0.654,0,0.75-0.372,0.75-0.593
		c0-0.361-0.295-0.543-0.877-0.543c-0.545,0-1.258,0.023-1.896,0.045c-0.512,0.017-0.973,0.032-1.26,0.032
		c-0.348,0-0.885-0.017-1.457-0.035c-0.664-0.021-1.375-0.042-1.904-0.042c-0.262,0-0.953,0-0.953,0.543
		c0,0.179,0.072,0.593,0.748,0.593c0.332,0,0.621,0.031,0.855,0.096c0.271,0.061,0.566,0.205,0.619,1.14
		c0.053,0.817,0.053,1.526,0.053,5.461v4.551C160.919,87.582,160.919,89.582,160.792,90.652z"/>
	<path fill="#FFFFFF" d="M7.654,91.375c2.068,1.869,4.798,1.869,5.964,1.869c1.553,0,3.593-0.221,5.595-1.943
		c2.261-1.936,2.572-5.006,2.572-8.033v-2.766c0-3.936,0-4.644,0.053-5.463c0.051-0.896,0.251-1.082,0.695-1.165
		c0.292-0.047,0.425-0.068,0.676-0.068c0.662,0,0.801-0.309,0.801-0.568c0-0.567-0.661-0.567-0.878-0.567
		c-0.652,0-1.562,0.032-2.211,0.055c-0.353,0.013-0.63,0.021-0.801,0.02c-1.442-0.061-2.377-0.074-2.907-0.074
		c-0.217,0-0.878,0-0.878,0.567c0,0.213,0.1,0.568,0.774,0.568c0.278,0,0.688,0.027,0.862,0.068
		c0.641,0.138,0.799,0.355,0.847,1.167c0.051,0.817,0.051,1.526,0.051,5.461v3.23c0,2.703-0.104,4.875-1.402,6.176
		c-1.173,1.172-2.72,1.297-3.331,1.297c-0.901,0-1.964-0.117-3.02-0.984c-0.983-0.803-1.894-2.096-1.894-6.1v-3.619
		c0-3.936,0-4.644,0.051-5.463c0.051-0.896,0.252-1.082,0.697-1.165c0.291-0.047,0.423-0.068,0.675-0.068
		c0.675,0,0.748-0.396,0.748-0.568c0-0.567-0.656-0.567-0.903-0.567c-0.514,0-1.242,0.023-1.897,0.045
		c-0.527,0.016-1.006,0.032-1.283,0.032c-0.331,0-0.817-0.014-1.373-0.03c-0.746-0.022-1.616-0.047-2.401-0.047
		c-0.247,0-0.903,0-0.903,0.567c0,0.213,0.1,0.568,0.774,0.568c0.374,0,0.773,0.029,0.939,0.068c0.64,0.138,0.798,0.355,0.847,1.167
		c0.052,0.817,0.052,1.526,0.052,5.461v3.775C5.244,87.632,6.01,89.888,7.654,91.375z"/>
	<path fill="#FFFFFF" d="M145.044,91.333c-0.998,0-2.764-0.309-3.373-2.375c-0.129-0.426-0.219-0.926-0.219-1.219
		c0-0.701-0.416-0.775-0.598-0.775c-0.574,0-0.625,0.74-0.646,1.039c-0.031,0.488-0.125,1.977-0.125,3.354
		c0,0.691,0.146,0.947,0.688,1.188c1.113,0.49,2.281,0.699,3.91,0.699c1.717,0,3.121-0.363,4.293-1.115
		c2.248-1.467,2.584-3.623,2.584-4.777c0-2.602-1.186-4.461-4.375-6.859l-0.721-0.543c-2.207-1.674-2.611-2.479-2.611-3.455
		c0-1.415,1.078-2.329,2.746-2.329c1.482,0,2.168,0.65,2.557,1.142c0.496,0.616,0.598,1.337,0.598,1.498
		c0,0.723,0.414,0.801,0.592,0.801c0.621,0,0.621-0.75,0.621-1.111c0-1.421,0.051-2.198,0.08-2.662
		c0.014-0.197,0.023-0.337,0.023-0.439c0-0.331-0.211-0.546-0.609-0.635c-0.779-0.209-1.883-0.449-3.527-0.449
		c-3.713,0-6.307,2.146-6.307,5.219c0,2.311,1.182,4.223,3.955,6.393l1.189,0.93c2.004,1.57,2.406,2.645,2.406,3.871
		C148.175,90.019,147.099,91.333,145.044,91.333z"/>
	<path fill="#FFFFFF" d="M153.005,62.33c0-0.244-0.176-0.281-0.457-0.281c-0.422,0-0.949-0.035-1.477-0.14
		c-0.736-0.176-1.758-0.667-3.094-3.831c-2.248-5.342-7.871-19.684-8.715-21.617c-0.352-0.809-0.562-1.125-0.879-1.125
		c-0.352,0-0.562,0.388-0.984,1.406l-8.822,22.072c-0.703,1.759-1.371,2.953-2.986,3.165c-0.281,0.035-0.773,0.07-1.092,0.07
		c-0.281,0-0.422,0.072-0.422,0.281c0,0.281,0.213,0.354,0.668,0.354c1.83,0,3.762-0.107,4.148-0.107
		c1.09,0,2.602,0.107,3.727,0.107c0.385,0,0.598-0.072,0.598-0.354c0-0.209-0.107-0.281-0.527-0.281h-0.527
		c-1.09,0-1.406-0.456-1.406-1.087c0-0.423,0.176-1.267,0.527-2.147l1.898-5.025c0.068-0.209,0.141-0.281,0.314-0.281h7.838
		c0.176,0,0.281,0.072,0.354,0.247l2.811,7.451c0.176,0.422-0.07,0.738-0.316,0.808c-0.352,0.035-0.492,0.107-0.492,0.316
		c0,0.247,0.422,0.247,1.055,0.281c2.812,0.072,5.377,0.072,6.645,0.072C152.689,62.684,153.005,62.611,153.005,62.33z
		 M140.667,51.752h-6.467c-0.141,0-0.174-0.107-0.141-0.246l3.234-8.647c0.035-0.14,0.105-0.316,0.211-0.316
		s0.141,0.177,0.176,0.316l3.164,8.682C140.88,51.645,140.845,51.752,140.667,51.752z"/>
	<path fill="#FFFFFF" d="M30.305,59.977c-0.141,1.018-0.315,1.792-1.019,1.933c-0.316,0.07-0.739,0.14-1.265,0.14
		c-0.421,0-0.562,0.106-0.562,0.281c0,0.247,0.245,0.354,0.703,0.354c0.703,0,1.617-0.072,2.425-0.072
		c0.844-0.035,1.617-0.035,2.003-0.035c1.055,0,2.145,0.035,3.656,0.107c1.512,0.035,3.445,0.104,6.08,0.104
		c1.336,0,1.653,0,1.898-0.913c0.177-0.704,0.458-3.093,0.458-3.903c0-0.351,0-0.632-0.281-0.632c-0.247,0-0.316,0.142-0.387,0.527
		c-0.245,1.44-0.668,2.179-1.581,2.6c-0.913,0.423-2.391,0.423-3.304,0.423c-3.585,0-4.147-0.527-4.218-2.951
		c-0.036-1.02,0-4.254,0-5.45v-2.774c0-0.213,0.035-0.353,0.21-0.353c0.845,0,4.324,0.035,4.992,0.104
		c1.3,0.142,1.792,0.669,1.969,1.373c0.104,0.456,0.104,0.913,0.139,1.264c0,0.176,0.071,0.316,0.316,0.316
		c0.317,0,0.317-0.386,0.317-0.667c0-0.246,0.105-1.652,0.141-2.356c0.141-1.791,0.281-2.354,0.281-2.565s-0.106-0.281-0.247-0.281
		c-0.175,0-0.316,0.174-0.562,0.456c-0.316,0.353-0.844,0.458-1.687,0.53c-0.809,0.07-4.851,0.07-5.625,0.07
		c-0.21,0-0.246-0.142-0.246-0.388v-8.892c0-0.246,0.071-0.353,0.246-0.353c0.704,0,4.395,0.072,4.992,0.142
		c1.757,0.211,2.108,0.634,2.354,1.266c0.177,0.421,0.211,1.018,0.211,1.267c0,0.313,0.07,0.49,0.316,0.49
		c0.247,0,0.316-0.209,0.351-0.386c0.071-0.423,0.142-1.968,0.176-2.321c0.105-1.617,0.281-2.038,0.281-2.284
		c0-0.177-0.035-0.316-0.211-0.316c-0.175,0-0.386,0.104-0.562,0.139c-0.281,0.072-0.844,0.142-1.512,0.211
		c-0.668,0.035-7.661,0.035-8.787,0.035c-0.492,0-1.3-0.035-2.213-0.07c-0.88,0-1.898-0.035-2.848-0.035
		c-0.526,0-0.774,0.069-0.774,0.316c0,0.246,0.211,0.316,0.6,0.316c0.491,0,1.088,0.035,1.37,0.104
		c1.161,0.246,1.441,0.809,1.511,2.005c0.071,1.125,0.071,2.107,0.071,7.451v6.185C30.481,55.723,30.481,58.501,30.305,59.977z"/>
	<path fill="#FFFFFF" d="M204.742,61.698c-0.244,0.107-0.385,0.211-0.385,0.388c0,0.209,0.209,0.316,1.018,0.386
		c1.406,0.104,6.256,0.211,7.137,0.211c0.492,0,0.914-0.107,0.914-0.388c0-0.209-0.246-0.246-0.562-0.246
		c-0.459,0-1.16-0.035-2.18-0.351c-1.055-0.316-1.406-1.336-1.723-3.55l-3.199-21.721c-0.105-0.739-0.316-1.09-0.633-1.09
		c-0.314,0-0.49,0.281-0.771,0.843l-9.561,20.069l-9.596-19.823c-0.457-0.913-0.668-1.09-0.949-1.09s-0.492,0.316-0.598,0.913
		l-3.479,22.917c-0.135,0.916-0.336,1.929-0.863,2.451c-0.654-0.217-1.332-0.495-1.844-0.798c-0.949-0.562-2.529-1.513-4.887-3.446
		c2.004-2.354,3.445-5.623,3.445-8.329c0-0.423-0.527-0.632-1.195-0.704c-1.969-0.209-3.373-0.246-4.217-0.246
		c-0.281,0-0.562,0.072-0.562,0.353c0,0.209,0.211,0.281,0.422,0.281c0.527,0,1.266,0.104,1.721,0.527
		c0.527,0.458,0.668,1.089,0.668,1.617c0,2.145-0.984,4.429-1.686,5.412c-0.668-0.597-4.992-4.499-6.188-5.869
		c-2.811-3.129-5.834-5.941-5.834-9.245c0-2.986,2.285-4.005,3.762-4.005c1.967,0,3.197,0.739,3.9,1.582
		c0.773,0.913,1.02,2.038,1.02,2.951c0,0.527,0.035,0.669,0.246,0.669s0.352-0.072,0.422-0.597c0.105-0.529,0.387-3.341,0.387-4.5
		c0-0.423,0-0.704-0.598-0.913c-0.947-0.388-2.529-0.739-4.254-0.739c-6.115,0-8.574,3.689-8.539,6.468
		c0.035,1.582,0.316,3.022,1.793,4.99c-2.111,1.018-5.73,4.217-5.73,8.33c0,3.058,2.25,7.767,9.771,7.767
		c4.816,0,7.17-2.145,8.33-3.197c2.961,2.271,4.242,2.689,8.061,2.705c0.008,0,0.014,0.002,0.023,0.002
		c0.025,0,0.057-0.001,0.084-0.001c0.043,0,0.082,0.001,0.127,0.001h2.705c0.432,0,0.697-0.037,0.857-0.102
		c0.752,0.021,2.113,0.102,3.396,0.102c0.527,0,0.844-0.072,0.844-0.388c0-0.174-0.246-0.246-0.527-0.246
		c-0.352,0-0.844-0.035-1.477-0.174c-0.598-0.142-1.055-0.458-1.055-1.127c0-0.562,0.035-1.018,0.105-1.652l1.828-13.987h0.141
		c1.23,2.635,3.34,7.065,3.654,7.802c0.422,0.985,3.199,6.362,4.043,7.979c0.562,1.055,0.914,1.759,1.23,1.759
		s0.49-0.318,1.301-1.968l7.662-15.959h0.141l2.109,15.464C205.06,61.171,204.953,61.628,204.742,61.698z M162.531,60.962
		c-3.656,0-6.748-2.813-6.748-7.207c0-2.812,1.229-4.463,2.424-5.342c0.598,0.878,2.848,3.409,3.762,4.394
		c0.914,0.983,4.287,4.287,6.326,6.045C167.556,59.554,165.238,60.962,162.531,60.962z"/>
	<path fill="#FFFFFF" d="M99.159,62.33c0-0.244-0.174-0.281-0.456-0.281c-0.423,0-0.95-0.035-1.478-0.14
		c-0.739-0.176-1.756-0.667-3.092-3.831c-2.249-5.342-7.874-19.684-8.717-21.617c-0.351-0.809-0.562-1.125-0.878-1.125
		c-0.352,0-0.562,0.388-0.985,1.406l-8.822,22.072c-0.662,1.658-1.304,2.803-2.729,3.107c-0.105-0.024-0.21-0.05-0.328-0.084
		c-0.913-0.281-1.44-0.702-2.039-1.476c-0.878-1.125-6.572-10.648-7.696-12.372l5.764-8.294c1.054-1.547,1.756-2.53,2.565-2.742
		c0.493-0.142,0.913-0.211,1.265-0.211s0.562-0.104,0.562-0.316s-0.246-0.316-0.633-0.316c-1.299,0-2.742,0.104-3.443,0.104
		c-0.668,0-2.145-0.104-3.515-0.104c-0.493,0-0.738,0.104-0.738,0.316c0,0.246,0.21,0.316,0.422,0.316c0.281,0,0.773,0,1.125,0.104
		c0.351,0.107,0.597,0.388,0.597,0.634c0,0.281-0.105,0.843-0.386,1.336c-0.527,0.983-3.762,5.869-4.78,7.416
		c-1.372-2.391-2.952-4.956-4.464-7.767c-0.211-0.388-0.351-0.811-0.351-1.02c0-0.211,0.104-0.458,0.421-0.562
		c0.281-0.107,0.739-0.142,0.95-0.142c0.316,0,0.526-0.07,0.526-0.316c0-0.247-0.21-0.316-0.703-0.316
		c-1.3,0-3.269,0.104-3.76,0.104c-1.653,0-4.5-0.104-5.343-0.104c-0.458,0-0.703,0.069-0.703,0.281c0,0.247,0.141,0.351,0.353,0.351
		c0.351,0,0.913,0.07,1.475,0.246c1.23,0.386,2.074,1.229,2.917,2.637l6.045,10.016l-6.712,9.595
		c-1.195,1.687-1.864,2.356-2.882,2.637c-0.527,0.139-1.055,0.174-1.302,0.174c-0.281,0-0.493,0.106-0.493,0.318
		c0,0.209,0.177,0.316,0.528,0.316h0.598c0.562,0,2.286-0.107,2.953-0.107c0.879,0,3.093,0.107,3.304,0.107h0.632
		c0.458,0,0.704-0.072,0.704-0.316c0-0.211-0.211-0.318-0.422-0.318c-0.281,0-0.596-0.035-0.808-0.07
		c-0.317-0.07-0.633-0.281-0.668-0.597c-0.035-0.388,0.141-0.916,0.493-1.478l5.202-8.399c1.616,2.635,3.62,6.115,5.553,9.561
		c0.246,0.458,0.105,0.771-0.07,0.809c-0.316,0.069-0.493,0.174-0.493,0.386c0,0.246,0.281,0.316,1.194,0.351
		c2.092,0.056,4.214,0.068,5.465,0.071c0.007,0,0.011,0.001,0.018,0.001c0.037,0,0.074-0.001,0.111-0.001
		c0.304,0.001,0.565,0.001,0.732,0.001h1.055c0.128,0,0.237-0.017,0.336-0.041c0.94-0.03,1.69-0.066,1.913-0.066
		c1.091,0,2.602,0.107,3.727,0.107c0.387,0,0.597-0.072,0.597-0.354c0-0.209-0.105-0.281-0.527-0.281h-0.526
		c-1.091,0-1.407-0.456-1.407-1.087c0-0.423,0.176-1.267,0.527-2.147l1.898-5.025c0.069-0.209,0.14-0.281,0.316-0.281h7.838
		c0.176,0,0.281,0.072,0.352,0.247l2.812,7.451c0.177,0.422-0.07,0.738-0.316,0.808c-0.351,0.035-0.492,0.107-0.492,0.316
		c0,0.247,0.422,0.247,1.054,0.281c2.812,0.072,5.377,0.072,6.643,0.072C98.843,62.684,99.159,62.611,99.159,62.33z M86.823,51.752
		h-6.467c-0.142,0-0.176-0.107-0.142-0.246l3.234-8.647c0.035-0.14,0.104-0.316,0.211-0.316c0.104,0,0.141,0.177,0.174,0.316
		l3.164,8.682C87.034,51.645,86.999,51.752,86.823,51.752z"/>
	<path fill="#FFFFFF" d="M23.733,35.865c-0.141,0-0.423,0.07-0.948,0.177c-0.528,0.07-1.301,0.174-2.426,0.174H6.44
		c-1.159,0-2.496-0.07-3.515-0.174c-0.878-0.072-1.229-0.423-1.51-0.423c-0.212,0-0.317,0.211-0.423,0.669
		c-0.07,0.279-0.738,3.478-0.738,4.041c0,0.386,0.071,0.562,0.317,0.562c0.21,0,0.316-0.139,0.386-0.42s0.245-0.704,0.597-1.231
		c0.527-0.771,1.371-0.948,3.409-1.02l5.238-0.139v14.41c0,3.234,0,6.013-0.177,7.488c-0.104,1.018-0.316,1.792-1.019,1.933
		c-0.317,0.07-0.739,0.14-1.265,0.14c-0.422,0-0.562,0.106-0.562,0.281c0,0.247,0.245,0.354,0.703,0.354
		c1.405,0,3.619-0.107,4.428-0.107c0.984,0,3.198,0.107,5.518,0.107c0.386,0,0.668-0.107,0.668-0.354
		c0-0.174-0.177-0.281-0.562-0.281c-0.527,0-1.301-0.07-1.793-0.14c-1.054-0.142-1.264-0.915-1.37-1.898
		c-0.177-1.51-0.177-4.289-0.177-7.523v-14.41l4.43,0.106c3.128,0.07,4.076,1.053,4.147,1.966l0.035,0.388
		c0.035,0.527,0.104,0.702,0.387,0.702c0.21,0,0.281-0.209,0.317-0.562c0-0.913,0.105-3.336,0.105-4.075
		C24.014,36.076,23.979,35.865,23.733,35.865z"/>
	<path fill="#FFFFFF" d="M114.589,55.618c0-3.339-1.512-5.764-5.764-8.963l-0.983-0.739c-2.918-2.214-3.726-3.443-3.726-5.061
		c0-2.107,1.581-3.62,4.181-3.62c2.286,0,3.305,1.055,3.832,1.721c0.738,0.914,0.916,2.003,0.916,2.321
		c0,0.42,0.104,0.632,0.35,0.632c0.281,0,0.387-0.281,0.387-1.055c0-2.742,0.141-3.762,0.141-4.217c0-0.247-0.176-0.351-0.492-0.423
		c-0.913-0.247-2.391-0.597-4.674-0.597c-4.886,0-8.119,2.776-8.119,6.643c0,2.848,1.335,5.309,5.202,8.332l1.616,1.264
		c2.918,2.284,3.446,3.903,3.446,5.625c0,1.863-1.548,4.005-4.71,4.005c-2.179,0-4.253-0.948-5.026-3.548
		c-0.175-0.599-0.317-1.336-0.317-1.793c0-0.281-0.035-0.597-0.351-0.597c-0.281,0-0.386,0.386-0.422,0.913
		c-0.035,0.562-0.175,2.672-0.175,4.605c0,0.771,0.104,0.948,0.667,1.194c1.512,0.667,3.093,0.913,5.132,0.913
		c1.863,0,3.831-0.316,5.589-1.44C113.818,60.081,114.589,57.658,114.589,55.618z"/>
	<path fill="#FFFFFF" d="M168.187,128.81c-0.33,0-0.793-0.027-1.479-0.238c-0.545-0.164-0.781-0.699-1.01-2.295l-2.311-15.689
		c-0.104-0.713-0.369-1.074-0.789-1.074c-0.457,0-0.66,0.402-0.859,0.799l-6.607,13.867l-6.629-13.695
		c-0.33-0.658-0.562-0.971-0.986-0.971c-0.223,0-0.621,0.121-0.762,0.943l-2.516,16.557c-0.117,0.797-0.301,1.625-0.775,1.727
		c-0.348,0.07-0.502,0.07-0.695,0.07c-0.672,0-0.742,0.359-0.742,0.514c0,0.184,0.076,0.613,0.793,0.613
		c0.463,0,1.055-0.023,1.572-0.047c0.391-0.016,0.734-0.029,0.941-0.029c0.178,0,0.459,0.012,0.801,0.025
		c0.535,0.021,1.215,0.051,1.863,0.051c0.234,0,0.947,0,0.947-0.613c0-0.086-0.035-0.514-0.717-0.514
		c-0.305,0-0.639-0.041-0.99-0.117c-0.441-0.105-0.502-0.297-0.502-0.488c0-0.375,0.02-0.688,0.072-1.148l1.193-9.141
		c0.24,0.514,0.502,1.066,0.758,1.611c0.686,1.449,1.332,2.82,1.473,3.148c0.324,0.756,2.426,4.82,2.93,5.789l0.078,0.145
		c0.461,0.867,0.693,1.303,1.107,1.303c0.453,0,0.621-0.342,1.242-1.611l5.129-10.688l1.396,10.234
		c0.07,0.48,0.039,0.688,0.021,0.76c-0.15,0.066-0.43,0.227-0.43,0.562c0,0.523,0.602,0.576,1.045,0.613
		c1.006,0.076,4.518,0.154,5.18,0.154c0.898,0,0.996-0.43,0.996-0.613C168.927,129.089,168.798,128.81,168.187,128.81z"/>
	<path fill="#FFFFFF" d="M136.345,125.408c-0.49,0-0.572,0.443-0.611,0.66c-0.162,0.953-0.412,1.381-0.951,1.631
		c-0.594,0.273-1.629,0.273-2.246,0.273c-2.562,0-2.672-0.346-2.715-1.811c-0.018-0.52-0.01-1.844-0.004-2.875l0.008-2.973
		c0.82,0.004,2.969,0.031,3.385,0.072c0.857,0.094,1.053,0.412,1.133,0.734c0.051,0.219,0.064,0.438,0.076,0.629l0.018,0.209
		c0,0.338,0.225,0.564,0.561,0.564c0.375,0,0.564-0.275,0.564-0.818c0-0.104,0.027-0.504,0.053-0.914l0.049-0.76
		c0.066-0.848,0.133-1.311,0.168-1.568c0.023-0.158,0.033-0.252,0.033-0.312c0-0.322-0.205-0.537-0.51-0.537
		c-0.273,0-0.438,0.189-0.658,0.441c-0.15,0.168-0.479,0.227-0.998,0.27c-0.354,0.031-1.762,0.049-3.877,0.051l0.004-6.287
		c0.781,0.006,3.037,0.055,3.406,0.098c1.213,0.146,1.318,0.416,1.432,0.711c0.1,0.236,0.127,0.605,0.127,0.785
		c0,0.623,0.395,0.689,0.564,0.689c0.141,0,0.482-0.053,0.582-0.555c0.035-0.211,0.066-0.715,0.094-1.16
		c0.016-0.24,0.027-0.447,0.039-0.553c0.049-0.77,0.121-1.146,0.164-1.373c0.025-0.137,0.039-0.227,0.039-0.299
		c0-0.535-0.406-0.562-0.486-0.562c-0.131,0-0.25,0.039-0.354,0.072c-0.041,0.014-0.082,0.027-0.135,0.037
		c-0.238,0.059-0.846,0.123-1.029,0.143c-0.295,0.016-2.662,0.025-6.33,0.025c-0.297,0-0.754-0.018-1.283-0.037l-0.316-0.012
		c-0.309,0-0.643-0.008-0.982-0.014c-0.357-0.006-0.723-0.014-1.074-0.014c-0.244,0-0.893,0-0.893,0.564
		c0,0.211,0.1,0.562,0.766,0.562c0.365,0,0.756,0.029,0.92,0.068c0.629,0.133,0.783,0.348,0.828,1.141
		c0.051,0.803,0.051,1.498,0.051,5.363v4.469c0,2.32,0,4.322-0.123,5.363c-0.109,0.785-0.229,1.066-0.477,1.117
		c-0.283,0.061-0.561,0.092-0.844,0.092c-0.67,0-0.74,0.375-0.74,0.537c0,0.178,0.08,0.59,0.842,0.59c0.25,0,0.535-0.012,0.83-0.025
		c0.307-0.014,0.625-0.027,0.936-0.027c0.604-0.023,1.152-0.023,1.43-0.023c0.002,0,0.002,0,0.004,0c0.74,0,1.502,0.021,2.635,0.076
		l0.76,0.02c0.967,0.025,2.146,0.057,3.641,0.057c0.965,0,1.449,0,1.695-0.914c0.133-0.535,0.34-2.297,0.34-2.9
		C136.882,125.962,136.882,125.408,136.345,125.408z"/>
	<path fill="#FFFFFF" d="M117.605,109.894c-0.105,0-0.236,0.025-0.471,0.074l-0.277,0.057c-0.385,0.051-0.912,0.121-1.691,0.121
		h-10.055c-0.806,0-1.766-0.047-2.513-0.125c-0.334-0.027-0.541-0.119-0.707-0.191c-0.134-0.059-0.261-0.113-0.409-0.113
		c-0.46,0-0.577,0.5-0.63,0.732c-0.04,0.154-0.544,2.537-0.544,3.004c0,0.611,0.306,0.74,0.562,0.74c0.212,0,0.49-0.096,0.606-0.561
		c0.023-0.096,0.107-0.363,0.384-0.779c0.281-0.412,0.753-0.539,2.193-0.59l3.44-0.092v10.066c0,2.32,0,4.322-0.125,5.373
		c-0.077,0.734-0.213,1.053-0.475,1.107c-0.182,0.039-0.468,0.092-0.842,0.092c-0.67,0-0.742,0.375-0.742,0.537
		c0,0.178,0.082,0.59,0.841,0.59c0.582,0,1.353-0.025,2.018-0.047c0.497-0.016,0.934-0.029,1.184-0.029
		c0.278,0,0.693,0.012,1.195,0.025c0.781,0.021,1.772,0.051,2.79,0.051c0.779,0,0.818-0.492,0.818-0.59
		c0-0.127-0.055-0.537-0.742-0.537c-0.365,0-0.904-0.049-1.25-0.098c-0.461-0.061-0.618-0.303-0.703-1.078
		c-0.124-1.074-0.124-3.076-0.124-5.396v-10.066l2.858,0.066c1.645,0.037,2.617,0.443,2.67,1.119l0.025,0.271
		c0.02,0.285,0.059,0.818,0.615,0.818c0.324,0,0.512-0.238,0.559-0.74c0-0.346,0.023-0.992,0.043-1.604
		c0.018-0.559,0.033-1.088,0.033-1.342C118.14,110.458,118.14,109.894,117.605,109.894z"/>
	<path fill="#FFFFFF" d="M90.129,117.757l-0.708-0.535c-2.164-1.641-2.56-2.43-2.56-3.389c0-1.385,1.055-2.281,2.687-2.281
		c1.455,0,2.126,0.637,2.507,1.119c0.486,0.602,0.586,1.311,0.586,1.467c0,0.715,0.413,0.791,0.59,0.791
		c0.613,0,0.613-0.74,0.613-1.096c0-1.396,0.05-2.16,0.08-2.615c0.013-0.195,0.021-0.33,0.021-0.432
		c0-0.328-0.208-0.541-0.604-0.629c-0.762-0.205-1.845-0.441-3.464-0.441c-3.65,0-6.199,2.111-6.199,5.133
		c0,2.273,1.162,4.152,3.885,6.281l1.168,0.914c1.967,1.543,2.363,2.598,2.363,3.799c0,1.271-1.054,2.561-3.07,2.561
		c-0.979,0-2.709-0.303-3.311-2.326c-0.126-0.428-0.215-0.92-0.215-1.197c0-0.693-0.411-0.768-0.588-0.768
		c-0.575,0-0.624,0.73-0.639,0.975l-0.01,0.158c-0.036,0.574-0.118,1.924-0.118,3.189c0,0.613,0.095,0.912,0.683,1.168
		c1.09,0.482,2.239,0.689,3.843,0.689c1.688,0,3.067-0.357,4.22-1.096c2.208-1.441,2.538-3.562,2.538-4.699
		C94.427,121.937,93.262,120.111,90.129,117.757z"/>
	<path fill="#FFFFFF" d="M78.833,110.07c-0.235,0-0.75,0.018-1.282,0.037c-0.564,0.02-1.148,0.039-1.437,0.039
		c-0.352,0-0.72-0.018-1.101-0.035c-0.417-0.02-0.848-0.041-1.286-0.041c-0.508,0-0.766,0.189-0.766,0.564
		c0,0.424,0.452,0.521,0.717,0.58c0.229,0.053,0.274,0.154,0.274,0.309c0,0.309-0.11,0.705-0.327,1.182
		c-0.171,0.379-1.06,1.975-1.92,3.518c-0.739,1.326-1.286,2.311-1.601,2.9l-0.114-0.197c-0.981-1.697-3.59-6.209-3.885-6.842
		c-0.222-0.441-0.269-0.631-0.269-0.713c0-0.01,0.003-0.111,0.105-0.135l0.125-0.033c0.319-0.08,0.681-0.174,0.681-0.568
		c0-0.094-0.034-0.564-0.715-0.564c-0.685,0-1.332,0.027-1.857,0.049c-0.351,0.016-0.647,0.027-0.86,0.027
		c-0.479,0-1.31-0.025-2.014-0.047c-0.529-0.016-0.988-0.029-1.184-0.029c-0.758,0-0.817,0.432-0.817,0.564
		c0,0.094,0.034,0.562,0.715,0.562c0.217,0,0.591,0.119,0.898,0.285c0.472,0.273,1.087,0.93,1.642,1.752
		c0.902,1.338,4.278,6.885,4.45,7.277c0.318,0.711,0.548,1.225,0.548,2.514v2.082c0,0.398,0,1.461-0.078,2.516
		c-0.026,0.375-0.128,1.014-0.525,1.096c-0.277,0.061-0.551,0.092-0.815,0.092c-0.687,0-0.74,0.41-0.74,0.537
		c0,0.391,0.299,0.59,0.891,0.59c0.519,0,1.238-0.023,1.887-0.043c0.525-0.018,1.003-0.033,1.287-0.033
		c0.27,0,0.681,0.012,1.178,0.025c0.768,0.023,1.738,0.051,2.708,0.051c0.784,0,0.868-0.412,0.868-0.59
		c0-0.127-0.053-0.537-0.741-0.537c-0.336,0-0.886-0.049-1.226-0.098c-0.409-0.055-0.692-0.262-0.751-1.09
		c-0.077-1.055-0.077-2.117-0.077-2.516v-2.082c0-0.836,0-1.557,0.358-2.41c0.435-1.041,3.951-6.965,4.798-7.992
		c0.536-0.656,0.784-0.926,1.269-1.16c0.342-0.18,0.777-0.266,0.963-0.266c0.776,0,0.815-0.49,0.815-0.588
		C79.624,110.408,79.521,110.07,78.833,110.07z"/>
	<path fill="#FFFFFF" d="M51.737,117.755l-0.71-0.533c-2.162-1.643-2.558-2.43-2.558-3.389c0-1.385,1.055-2.281,2.688-2.281
		c1.433,0,2.091,0.598,2.507,1.119c0.484,0.6,0.583,1.311,0.583,1.467c0,0.715,0.412,0.791,0.589,0.791
		c0.615,0,0.615-0.74,0.615-1.096c0-1.396,0.05-2.16,0.08-2.615c0.013-0.195,0.021-0.33,0.021-0.432
		c0-0.328-0.207-0.539-0.602-0.629c-0.766-0.205-1.852-0.441-3.464-0.441c-3.65,0-6.2,2.111-6.2,5.133
		c0,2.273,1.162,4.152,3.885,6.281l1.167,0.914c1.965,1.539,2.36,2.596,2.36,3.799c0,1.271-1.054,2.561-3.069,2.561
		c-0.978,0-2.708-0.303-3.308-2.324c-0.125-0.43-0.214-0.924-0.214-1.199c0-0.693-0.413-0.768-0.59-0.768
		c-0.571,0-0.623,0.73-0.639,0.973l-0.006,0.094c-0.033,0.529-0.121,1.939-0.121,3.256c0,0.613,0.095,0.912,0.683,1.168
		c1.088,0.482,2.237,0.689,3.841,0.689c1.688,0,3.067-0.357,4.22-1.096c2.211-1.443,2.541-3.562,2.541-4.699
		C56.037,121.941,54.872,120.113,51.737,117.755z"/>
	<path fill="#FFFFFF" d="M122.675,1.473c0.369,0,0.748,0.028,0.912,0.068c0.619,0.13,0.771,0.341,0.816,1.125
		c0.049,0.795,0.049,1.484,0.049,5.309v4.425c0,2.296,0,4.28-0.123,5.309c-0.105,0.774-0.223,1.052-0.467,1.101
		c-0.201,0.044-0.48,0.094-0.834,0.094c-0.666,0-0.738,0.375-0.738,0.535c0,0.176,0.082,0.585,0.838,0.585
		c0.248,0,0.529-0.011,0.822-0.024c0.303-0.012,0.617-0.026,0.926-0.026c0.598-0.025,1.162-0.004,1.42-0.025
		c0.699,0,1.451,0.021,2.607,0.075l0.678,0.018c0.971,0.026,2.162,0.059,3.68,0.059c0.957,0,1.438,0,1.68-0.907
		c0.133-0.527,0.338-2.272,0.338-2.872c0-0.236,0-0.787-0.535-0.787c-0.486,0-0.566,0.439-0.607,0.655
		c-0.162,0.945-0.408,1.367-0.941,1.613c-0.586,0.271-1.611,0.271-2.223,0.271c-2.533,0-2.641-0.342-2.682-1.789
		c-0.018-0.511-0.01-1.807-0.004-2.848l0.008-2.939c0.854,0.003,2.936,0.03,3.346,0.073c0.846,0.091,1.037,0.404,1.117,0.724
		c0.049,0.21,0.062,0.432,0.076,0.627l0.016,0.201c0,0.335,0.225,0.561,0.561,0.561c0.373,0,0.562-0.273,0.562-0.812
		c0-0.089,0.02-0.395,0.041-0.737c0.023-0.329,0.047-0.689,0.057-0.921c0.066-0.838,0.133-1.294,0.17-1.55
		c0.023-0.157,0.035-0.251,0.035-0.311c0-0.315-0.211-0.535-0.512-0.535c-0.271,0-0.436,0.188-0.652,0.437
		c-0.15,0.166-0.475,0.224-0.988,0.268c-0.348,0.03-1.74,0.048-3.832,0.049l0.004-6.219c0.77,0.008,3.004,0.056,3.365,0.098
		c1.199,0.145,1.305,0.412,1.418,0.699c0.098,0.241,0.125,0.615,0.125,0.78c0,0.619,0.393,0.686,0.561,0.686
		c0.143,0,0.486-0.053,0.58-0.557c0.033-0.202,0.064-0.69,0.092-1.122c0.016-0.246,0.027-0.461,0.039-0.569
		c0.049-0.76,0.119-1.134,0.16-1.357c0.027-0.137,0.039-0.227,0.039-0.299c0-0.534-0.402-0.561-0.482-0.561
		c-0.133,0-0.258,0.041-0.357,0.074c-0.039,0.012-0.076,0.026-0.127,0.036c-0.24,0.061-0.838,0.124-1.016,0.143
		c-0.299,0.015-2.584,0.024-6.27,0.024c-0.33,0-0.859-0.022-1.463-0.046l-0.121-0.004c-0.307,0-0.637-0.006-0.973-0.012
		c-0.354-0.006-0.715-0.012-1.062-0.012c-0.242,0-0.889,0-0.889,0.561C121.914,1.123,122.013,1.473,122.675,1.473z"/>
	<path fill="#FFFFFF" d="M98.244,1.473c0.363,0,0.749,0.028,0.91,0.068c0.616,0.13,0.769,0.34,0.816,1.125
		c0.048,0.795,0.048,1.484,0.048,5.309v4.425c0,2.296,0,4.28-0.123,5.309c-0.105,0.774-0.222,1.052-0.467,1.101
		c-0.202,0.044-0.479,0.094-0.835,0.094c-0.665,0-0.736,0.375-0.736,0.535c0,0.176,0.082,0.585,0.836,0.585
		c0.575,0,1.338-0.024,1.997-0.045c0.492-0.016,0.925-0.03,1.173-0.03c0.276,0,0.689,0.012,1.188,0.026
		c0.77,0.022,1.742,0.049,2.732,0.049c0.776,0,0.836-0.448,0.836-0.585c0-0.125-0.053-0.535-0.734-0.535
		c-0.348,0-0.886-0.049-1.238-0.099c-0.455-0.061-0.609-0.299-0.692-1.063c-0.124-1.062-0.124-3.045-0.124-5.342v-2.028h9.235v2.028
		c0,2.296,0,4.28-0.123,5.309c-0.105,0.774-0.223,1.052-0.466,1.101c-0.202,0.044-0.481,0.094-0.837,0.094
		c-0.663,0-0.735,0.375-0.735,0.535c0,0.219,0.112,0.585,0.862,0.585c0.557,0,1.307-0.024,1.959-0.044
		c0.496-0.016,0.934-0.03,1.184-0.03c0.275,0,0.689,0.012,1.189,0.026c0.77,0.022,1.742,0.049,2.732,0.049
		c0.775,0,0.834-0.448,0.834-0.585c0-0.125-0.051-0.535-0.734-0.535c-0.352,0-0.887-0.049-1.236-0.099
		c-0.459-0.062-0.613-0.299-0.693-1.063c-0.123-1.062-0.123-3.045-0.123-5.342V7.976c0-3.825,0-4.514,0.049-5.31
		c0.049-0.871,0.234-1.044,0.648-1.122c0.301-0.049,0.504-0.071,0.678-0.071c0.648,0,0.785-0.304,0.785-0.559
		c0-0.561-0.648-0.561-0.863-0.561c-0.551,0-1.293,0.023-1.945,0.043c-0.506,0.016-0.957,0.031-1.221,0.031
		c-0.279,0-0.713-0.013-1.221-0.028c-0.725-0.021-1.6-0.046-2.398-0.046c-0.214,0-0.864,0-0.864,0.561
		c0,0.209,0.1,0.559,0.762,0.559c0.369,0,0.747,0.028,0.911,0.068c0.619,0.13,0.771,0.341,0.816,1.126
		c0.051,0.795,0.051,1.484,0.051,5.309v0.37h-9.235v-0.37c0-3.825,0-4.514,0.049-5.31c0.05-0.865,0.243-1.046,0.65-1.122
		c0.299-0.049,0.501-0.071,0.674-0.071c0.651,0,0.788-0.304,0.788-0.559c0-0.561-0.65-0.561-0.864-0.561
		c-0.552,0-1.294,0.023-1.947,0.043c-0.506,0.016-0.957,0.031-1.22,0.031c-0.278,0-0.712-0.013-1.219-0.028
		c-0.727-0.021-1.603-0.046-2.4-0.046c-0.214,0-0.863,0-0.863,0.561C97.48,1.123,97.579,1.473,98.244,1.473z"/>
	<path fill="#FFFFFF" d="M78.96,4.439c0.21,0,0.486-0.096,0.599-0.551c0.033-0.125,0.126-0.393,0.38-0.775
		c0.281-0.409,0.749-0.534,2.172-0.583l3.402-0.093v9.964c0,2.296,0,4.28-0.126,5.321c-0.09,0.893-0.274,1.05-0.466,1.089
		c-0.185,0.04-0.472,0.094-0.833,0.094c-0.667,0-0.739,0.375-0.739,0.535c0,0.176,0.081,0.585,0.838,0.585
		c0.576,0,1.34-0.024,1.998-0.045c0.491-0.016,0.923-0.03,1.169-0.03c0.276,0,0.688,0.012,1.186,0.026
		c0.774,0.022,1.754,0.049,2.763,0.049c0.772,0,0.811-0.487,0.811-0.585c0-0.125-0.053-0.535-0.737-0.535
		c-0.349,0-0.885-0.049-1.237-0.099c-0.457-0.061-0.612-0.299-0.694-1.062c-0.122-1.062-0.122-3.046-0.122-5.343V2.437l2.824,0.068
		c1.628,0.037,2.59,0.437,2.642,1.103l0.024,0.269c0.018,0.265,0.055,0.815,0.611,0.815c0.483,0,0.541-0.528,0.561-0.738
		c0-0.341,0.021-0.98,0.04-1.585c0.018-0.553,0.034-1.078,0.034-1.331c0-0.302,0-0.863-0.536-0.863c-0.107,0-0.24,0.028-0.48,0.078
		l-0.244,0.051c-0.357,0.049-0.897,0.123-1.688,0.123h-9.955c-0.793,0-1.743-0.047-2.485-0.125
		c-0.332-0.027-0.536-0.116-0.701-0.189C79.838,0.055,79.711,0,79.563,0c-0.459,0-0.572,0.499-0.625,0.731
		C78.896,0.901,78.4,3.24,78.4,3.704C78.4,4.312,78.705,4.439,78.96,4.439z"/>
	<rect y="26.727" fill="#FFFFFF" width="213.425" height="1.116"/>
	<rect y="101.019" fill="#FFFFFF" width="213.425" height="1.117"/>
</g>
</svg>
