<?xml version="1.0" encoding="utf-8"?>
<!-- Generator: Adobe Illustrator 16.0.4, SVG Export Plug-In . SVG Version: 6.00 Build 0)  -->
<!DOCTYPE svg PUBLIC "-//W3C//DTD SVG 1.1//EN" "http://www.w3.org/Graphics/SVG/1.1/DTD/svg11.dtd">
<svg version="1.1" id="Layer_1" xmlns="http://www.w3.org/2000/svg" xmlns:xlink="http://www.w3.org/1999/xlink" x="0px" y="0px"
	 width="452px" height="76px" viewBox="-113 -19.5 452 76" enable-background="new -113 -19.5 452 76" xml:space="preserve">
<g>
	<path fill="#28A9E1" d="M339,56.5H157v-76h182V56.5z M159,54.5h178v-72H159V54.5z"/>
</g>
<g>
	<path fill="#FFFFFF" d="M184.418,39.051V5.29h-5.59v-7.34h20.387v7.34h-5.59v33.761H184.418L184.418,39.051z"/>
	<path fill="#FFFFFF" d="M220.121,39.402h-5.918c-5.719,0-8.547-2.523-8.547-7.633V5.23c0-5.108,2.828-7.633,8.547-7.633h5.918
		c5.723,0,8.551,2.524,8.551,7.633V31.77C228.672,36.879,225.844,39.402,220.121,39.402z M217.822,4.644h-1.316
		c-1.119,0-1.643,0.471-1.643,1.469v24.778c0,0.996,0.527,1.469,1.643,1.469h1.316c1.119,0,1.643-0.473,1.643-1.469V6.112
		C219.465,5.114,218.938,4.644,217.822,4.644z"/>
	<path fill="#FFFFFF" d="M236.359-2.05h12.957c6.641,0,9.867,2.878,9.867,8.808v23.49c0,5.93-3.219,8.803-9.867,8.803h-12.957V-2.05
		z M245.568,32.008h1.84c1.777,0,2.564-0.707,2.564-2.293V7.286c0-1.584-0.791-2.29-2.564-2.29h-1.84V32.008z"/>
	<path fill="#FFFFFF" d="M280.809,39.051l-0.721-5.988h-5.791l-0.656,5.988h-8.352l6.049-41.103h12.559l6.049,41.103H280.809z
		 M275.154,25.898h4.078L277.191,7.99L275.154,25.898z"/>
	<path fill="#FFFFFF" d="M309.412,39.051h-9.209V25.02L292.441-2.05h9.602l3.094,13.974L308.43-2.05h8.746l-7.762,26.479v14.621
		H309.412z"/>
</g>
<g>
	<path fill="#FFFFFF" d="M-92.68,1.03c0.7-1.716,0.932-2.028,1.282-2.028c0.35,0,0.582,0.26,1.282,1.872
		c0.874,1.976,10.014,23.454,13.566,31.358c2.096,4.627,3.786,5.459,5.008,5.771c0.874,0.26,1.748,0.312,2.33,0.312
		c0.35,0,0.582,0.051,0.582,0.312c0,0.312-0.524,0.414-1.164,0.414c-0.874,0-5.124,0-9.142-0.102
		c-1.106-0.055-1.748-0.055-1.748-0.369c0-0.209,0.173-0.312,0.407-0.365c0.351-0.105,0.7-0.574,0.351-1.406l-5.416-12.791
		c-0.116-0.209-0.234-0.311-0.524-0.311h-12.52c-0.292,0-0.466,0.156-0.582,0.414l-3.494,9.209
		c-0.524,1.299-0.816,2.545-0.816,3.482c0,1.043,1.225,1.51,2.211,1.51h0.583c0.408,0,0.584,0.104,0.584,0.311
		c0,0.312-0.35,0.414-0.874,0.414c-1.397,0-3.899-0.156-4.542-0.156c-0.642,0-3.844,0.156-6.58,0.156
		c-0.756,0.004-1.104-0.098-1.104-0.414c0-0.209,0.234-0.311,0.524-0.311c0.407,0,1.222-0.053,1.688-0.104
		c2.678-0.312,3.842-2.293,4.89-4.889L-92.68,1.03z M-86.624,21.83c0.292,0,0.292-0.156,0.234-0.365l-5.532-14.043
		c-0.292-0.78-0.582-0.78-0.874,0l-5.124,14.043c-0.116,0.262,0,0.365,0.174,0.365H-86.624z"/>
	<path fill="#FFFFFF" d="M-39.23,27.758c0-3.588-0.117-4.107-2.212-4.473c-0.407-0.047-1.281-0.104-1.748-0.104
		c-0.174,0-0.407-0.209-0.407-0.363c0-0.312,0.231-0.365,0.815-0.365c2.328,0,5.765,0.105,6.055,0.105
		c0.233,0,3.436-0.105,5.008-0.105c0.582,0,0.815,0.049,0.815,0.365c0,0.154-0.233,0.363-0.407,0.363c-0.351,0-0.7,0-1.282,0.104
		c-1.398,0.209-1.805,0.885-1.922,2.449c-0.059,1.402-0.059,2.703-0.059,4.574v4.941c0,2.031-0.058,2.08-0.7,2.391
		c-3.26,1.51-7.918,1.977-10.888,1.977c-3.902,0-11.18-0.418-16.886-4.734c-3.145-2.34-6.114-7.068-6.114-12.582
		c0-7.075,4.019-12.064,8.561-14.509c4.6-2.496,9.724-2.808,13.624-2.808c3.262,0,6.871,0.52,7.861,0.728
		c1.048,0.208,2.854,0.468,4.134,0.468c0.524,0,0.641,0.208,0.641,0.416c0,0.624-0.292,1.82-0.292,6.24
		c0,0.729-0.234,0.936-0.582,0.936c-0.292,0-0.351-0.26-0.351-0.676c-0.058-0.571-0.35-1.872-1.166-2.912
		c-1.279-1.664-5.182-3.432-11.819-3.432c-3.086,0-6.814,0.208-10.714,2.86c-2.971,2.027-5.066,5.979-5.066,11.128
		c0,6.24,3.61,10.709,5.416,12.217c4.076,3.379,8.384,4.627,13.102,4.627c1.805,0,4.192-0.156,5.532-0.832
		c0.641-0.311,1.048-0.52,1.048-1.352v-7.643H-39.23z"/>
	<path fill="#FFFFFF" d="M-20.834,18.398c0-6.866,0-8.114-0.116-9.517c-0.118-1.508-0.408-2.235-2.096-2.444
		c-0.408-0.052-1.282-0.104-1.748-0.104c-0.174,0-0.408-0.208-0.408-0.364c0-0.26,0.232-0.363,0.816-0.363
		c2.33,0,5.764,0.104,6.056,0.104c0.524,0,4.834-0.104,6.404-0.104c3.261,0,6.872,0.26,9.55,1.924
		c1.282,0.832,3.552,2.964,3.552,6.032c0,3.275-1.514,6.447-6.288,10.088c4.192,4.68,7.744,8.684,10.714,11.439
		c2.736,2.496,4.425,2.912,5.706,3.068c0.99,0.156,1.514,0.156,1.805,0.156c0.29,0,0.466,0.207,0.466,0.365
		c0,0.262-0.292,0.363-1.222,0.363H9.154c-2.912,0-4.192-0.258-5.475-0.881c-2.212-1.041-4.076-3.172-6.987-6.5
		c-2.154-2.393-4.425-5.252-5.532-6.451c-0.234-0.207-0.351-0.262-0.7-0.262l-6.521-0.104c-0.232,0-0.351,0.104-0.351,0.365v1.043
		c0,4.264,0,7.699,0.234,9.516c0.174,1.301,0.466,2.133,2.038,2.344c0.697,0.105,1.804,0.207,2.27,0.207
		c0.351,0,0.408,0.207,0.408,0.365c0,0.209-0.234,0.365-0.816,0.365c-2.794,0-6.056-0.156-6.29-0.156
		c-0.058,0-3.494,0.156-5.065,0.156c-0.524,0-0.816-0.102-0.816-0.365c0-0.154,0.116-0.365,0.408-0.365
		c0.466,0,1.106-0.105,1.572-0.207c0.989-0.209,1.105-1.043,1.34-2.344c0.292-1.816,0.292-5.301,0.292-9.562v-7.805h0.004V18.398z
		 M-16.41,22.141c0,0.262,0.118,0.418,0.351,0.574c0.756,0.363,3.376,0.676,5.647,0.676c1.222,0,2.62-0.053,3.842-0.781
		c1.748-1.043,3.086-3.379,3.086-6.764c0-5.512-3.376-8.684-8.85-8.684c-1.514,0-3.144,0.156-3.668,0.26
		c-0.234,0.104-0.408,0.26-0.408,0.521V22.141z"/>
	<path fill="#FFFFFF" d="M21.26,26.199c0,4.266,0,7.75,0.232,9.566c0.174,1.301,0.35,2.133,1.864,2.344
		c0.756,0.102,1.863,0.209,2.329,0.209c0.292,0,0.408,0.209,0.408,0.365c0,0.207-0.233,0.367-0.815,0.367
		c-2.854,0-6.172-0.156-6.406-0.156c-0.292,0-3.494,0.156-5.066,0.156c-0.523,0-0.815-0.105-0.815-0.367
		c0-0.152,0.116-0.365,0.408-0.365c0.463,0,1.105-0.107,1.571-0.209c0.99-0.207,1.166-1.041,1.34-2.344
		c0.232-1.816,0.292-5.301,0.292-9.566V18.4c0-6.866,0-8.114-0.115-9.517c-0.118-1.508-0.524-2.184-1.63-2.392
		c-0.582-0.104-1.223-0.156-1.572-0.156c-0.232,0-0.408-0.208-0.408-0.364c0-0.26,0.232-0.363,0.816-0.363
		c1.688,0,4.89,0.104,5.182,0.104c0.234,0,3.552-0.104,5.124-0.104c0.584,0,0.816,0.104,0.816,0.363
		c0,0.156-0.232,0.364-0.408,0.364c-0.351,0-0.7,0-1.282,0.104c-1.398,0.26-1.688,0.884-1.806,2.443
		c-0.059,1.404-0.059,2.652-0.059,9.517V26.199z"/>
	<path fill="#FFFFFF" d="M43.792,24.066c0,7.645,0.232,10.973,1.282,11.906c0.932,0.832,2.445,1.197,6.985,1.197
		c3.087,0,5.648-0.049,7.047-1.557c0.756-0.832,1.338-2.131,1.513-3.123c0.058-0.416,0.174-0.676,0.524-0.676
		c0.292,0,0.351,0.207,0.351,0.779s-0.408,3.695-0.875,5.203c-0.408,1.197-0.582,1.402-3.667,1.402c-4.192,0-7.22-0.105-9.666-0.156
		c-2.446-0.102-4.25-0.156-5.938-0.156c-0.233,0-1.224,0.055-2.388,0.055c-1.166,0.049-2.446,0.102-3.32,0.102
		c-0.64,0-0.932-0.102-0.932-0.414c0-0.156,0.118-0.311,0.466-0.311c0.524,0,1.223-0.107,1.748-0.209
		c1.164-0.207,1.456-1.355,1.688-2.863c0.292-2.184,0.292-6.293,0.292-11.285v-9.155c0-8.111,0-9.567-0.116-11.231
		c-0.116-1.769-0.582-2.601-2.504-2.964c-0.466-0.104-1.456-0.156-1.98-0.156c-0.233,0-0.466-0.104-0.466-0.312
		c0-0.312,0.292-0.416,0.932-0.416c2.62,0,6.288,0.156,6.58,0.156s4.542-0.156,6.288-0.156c0.641,0,0.933,0.104,0.933,0.416
		c0,0.208-0.234,0.312-0.467,0.312c-0.407,0-1.222,0.052-1.922,0.156c-1.688,0.26-2.153,1.144-2.27,2.964
		c-0.116,1.664-0.116,3.12-0.116,11.231L43.792,24.066L43.792,24.066z"/>
	<path fill="#FFFFFF" d="M74.942,26.199c0,4.266,0,7.75,0.231,9.566c0.174,1.301,0.351,2.133,1.864,2.344
		c0.758,0.102,1.864,0.209,2.33,0.209c0.292,0,0.408,0.209,0.408,0.365c0,0.207-0.234,0.367-0.816,0.367
		c-2.854,0-6.172-0.156-6.406-0.156c-0.292,0-3.494,0.156-5.065,0.156c-0.524,0-0.816-0.105-0.816-0.367
		c0-0.152,0.116-0.365,0.408-0.365c0.466,0,1.105-0.107,1.572-0.209c0.989-0.207,1.166-1.041,1.34-2.344
		c0.231-1.816,0.292-5.301,0.292-9.566V18.4c0-6.866,0-8.114-0.116-9.517c-0.118-1.508-0.524-2.184-1.63-2.392
		c-0.582-0.104-1.222-0.156-1.572-0.156c-0.231,0-0.408-0.208-0.408-0.364c0-0.26,0.232-0.363,0.816-0.363
		c1.688,0,4.89,0.104,5.182,0.104c0.234,0,3.553-0.104,5.124-0.104c0.582,0,0.816,0.104,0.816,0.363
		c0,0.156-0.234,0.364-0.408,0.364c-0.35,0-0.7,0-1.282,0.104c-1.397,0.26-1.688,0.884-1.804,2.443
		c-0.058,1.404-0.058,2.652-0.058,9.517L74.942,26.199L74.942,26.199z"/>
	<path fill="#FFFFFF" d="M90.08,18.398c0-6.866,0-8.114-0.116-9.517c-0.118-1.508-0.408-2.235-2.096-2.444
		c-0.408-0.052-1.282-0.104-1.748-0.104c-0.174,0-0.408-0.208-0.408-0.364c0-0.26,0.234-0.363,0.816-0.363
		c2.33,0,5.531,0.104,5.821,0.104c0.99,0,12.112,0.052,13.276,0c0.99-0.052,1.862-0.052,2.33-0.208
		c0.292-0.052,0.521-0.26,0.698-0.26c0.233,0,0.348,0.208,0.348,0.416c0,0.312-0.229,0.832-0.406,2.08
		c-0.058,0.416-0.118,2.392-0.229,2.912c-0.061,0.208-0.236,0.468-0.468,0.468s-0.408-0.208-0.408-0.521
		c0-0.363-0.174-1.092-0.464-1.664c-0.29-0.571-1.515-1.3-3.494-1.3L95.148,7.53c-0.292,0-0.408,0.104-0.408,0.468v12.064
		c0,0.26,0,0.416,0.35,0.416l6.988-0.053c0.874,0,1.63,0,2.33-0.051c1.222-0.105,1.92-0.262,2.388-0.781
		c0.232-0.26,0.464-0.468,0.64-0.468c0.232,0,0.292,0.156,0.292,0.366c0,0.26-0.35,0.988-0.466,2.443
		c-0.118,0.885-0.174,2.652-0.174,2.965c0,0.416-0.118,0.881-0.466,0.881c-0.292,0-0.35-0.209-0.35-0.414
		c-0.057-0.467-0.116-1.096-0.351-1.615c-0.231-0.623-1.046-1.197-2.62-1.404c-1.282-0.152-7.336-0.104-8.21-0.104
		c-0.292,0-0.35,0.104-0.35,0.416v3.539c0,4.369,0,7.852,0.231,9.564c0.175,1.301,0.467,2.133,1.864,2.346
		c0.756,0.102,1.864,0.207,2.33,0.207c0.292,0,0.408,0.207,0.408,0.365c0,0.209-0.234,0.365-0.816,0.365
		c-2.854,0-6.172-0.156-6.406-0.156c-0.292,0-3.493,0.156-5.065,0.156c-0.524,0-0.816-0.105-0.816-0.365
		c0-0.154,0.116-0.365,0.408-0.365c0.464,0,1.106-0.156,1.572-0.207c0.99-0.156,1.105-1.043,1.34-2.346
		c0.292-1.814,0.292-5.299,0.292-9.564v-7.801H90.08z"/>
	<path fill="#FFFFFF" d="M119.539,18.398c0-6.866,0-8.114-0.117-9.517c-0.117-1.508-0.406-2.235-2.098-2.444
		c-0.406-0.052-1.281-0.104-1.746-0.104c-0.176,0-0.406-0.208-0.406-0.364c0-0.26,0.23-0.363,0.812-0.363
		c2.332,0,5.648,0.104,5.941,0.104c0.348,0,11.062,0.052,12.227,0c0.992-0.052,1.922-0.208,2.328-0.26
		c0.234-0.052,0.469-0.208,0.699-0.208c0.176,0,0.234,0.208,0.234,0.416c0,0.312-0.293,0.832-0.406,2.08
		c-0.059,0.416-0.176,2.392-0.293,2.912c-0.055,0.208-0.23,0.468-0.461,0.468c-0.293,0-0.41-0.208-0.41-0.572
		c0-0.312-0.051-1.04-0.293-1.56c-0.352-0.729-0.875-1.04-3.668-1.353c-0.875-0.104-6.809-0.155-7.391-0.155
		c-0.234,0-0.293,0.155-0.293,0.468v12.011c0,0.311,0,0.467,0.293,0.467c0.637,0,7.391,0,8.555-0.104
		c1.223-0.105,1.98-0.156,2.504-0.625c0.352-0.312,0.582-0.573,0.758-0.573s0.293,0.106,0.293,0.366s-0.293,0.988-0.402,2.443
		c-0.121,0.885-0.234,2.549-0.234,2.861c0,0.367-0.121,0.832-0.465,0.832c-0.234,0-0.348-0.156-0.348-0.414
		c0-0.418,0-0.883-0.234-1.457c-0.176-0.625-0.641-1.141-2.621-1.352c-1.398-0.156-6.875-0.207-7.742-0.207
		c-0.293,0-0.352,0.154-0.352,0.311v3.697c0,1.508-0.059,6.656,0,7.539c0.117,2.965,1.047,3.539,6.113,3.539
		c1.34,0,3.785,0,5.123-0.467c1.342-0.521,2.043-1.301,2.328-3.068c0.119-0.523,0.234-0.676,0.529-0.676
		c0.291,0,0.348,0.363,0.348,0.676c0,0.309-0.404,3.328-0.699,4.264c-0.35,1.145-0.877,1.145-2.854,1.145
		c-3.844,0-6.811-0.107-8.91-0.156c-2.154-0.107-3.492-0.107-4.25-0.107c-0.119,0-1.105,0-2.213,0.055
		c-0.988,0.049-2.15,0.102-2.967,0.102c-0.525,0-0.812-0.102-0.812-0.363c0-0.156,0.115-0.365,0.406-0.365
		c0.463,0,1.107-0.156,1.57-0.209c0.992-0.156,1.111-1.041,1.34-2.342c0.291-1.818,0.291-5.303,0.291-9.564V18.4h-0.008V18.398z"/>
</g>
</svg>
