<?xml version="1.0" encoding="utf-8"?>
<!-- Generator: Adobe Illustrator 16.0.4, SVG Export Plug-In . SVG Version: 6.00 Build 0)  -->
<!DOCTYPE svg PUBLIC "-//W3C//DTD SVG 1.1//EN" "http://www.w3.org/Graphics/SVG/1.1/DTD/svg11.dtd">
<svg version="1.1" id="Layer_1" xmlns="http://www.w3.org/2000/svg" xmlns:xlink="http://www.w3.org/1999/xlink" x="0px" y="0px"
	 width="226px" height="38px" viewBox="0 0 226 38" enable-background="new 0 0 226 38" xml:space="preserve">
<g>
	<path d="M226,38h-91V0h91V38z M136,37h89V1h-89V37z"/>
</g>
<g>
	<path fill="#03233B" d="M148.709,29.275V12.395h-2.795v-3.67h10.193v3.67h-2.795v16.881H148.709z"/>
	<path fill="#03233B" d="M166.561,29.451h-2.959c-2.861,0-4.275-1.262-4.275-3.816v-13.27c0-2.554,1.414-3.816,4.275-3.816h2.959
		c2.861,0,4.275,1.262,4.275,3.816v13.27C170.836,28.189,169.422,29.451,166.561,29.451z M165.411,12.072h-0.658
		c-0.559,0-0.822,0.235-0.822,0.734v12.39c0,0.498,0.264,0.734,0.822,0.734h0.658c0.559,0,0.822-0.236,0.822-0.734v-12.39
		C166.233,12.307,165.969,12.072,165.411,12.072z"/>
	<path fill="#03233B" d="M174.68,8.725h6.477c3.322,0,4.934,1.439,4.934,4.404v11.745c0,2.965-1.611,4.402-4.934,4.402h-6.477V8.725
		z M179.284,25.754h0.92c0.889,0,1.283-0.354,1.283-1.146V13.393c0-0.792-0.395-1.145-1.283-1.145h-0.92V25.754z"/>
	<path fill="#03233B" d="M196.905,29.275l-0.361-2.994h-2.895l-0.328,2.994h-4.176l3.025-20.551h6.279l3.025,20.551H196.905z
		 M194.077,22.699h2.039l-1.02-8.954L194.077,22.699z"/>
	<path fill="#03233B" d="M211.206,29.275h-4.604V22.26l-3.881-13.535h4.801l1.547,6.987l1.645-6.987h4.373l-3.881,13.24V29.275z"/>
</g>
<g>
	<path fill="#4B1111" d="M10.16,10.265c0.35-0.858,0.466-1.014,0.641-1.014s0.291,0.13,0.641,0.936
		c0.437,0.988,5.007,11.727,6.783,15.679c1.048,2.314,1.893,2.73,2.504,2.886c0.437,0.13,0.874,0.156,1.165,0.156
		c0.175,0,0.291,0.026,0.291,0.156c0,0.156-0.262,0.208-0.582,0.208c-0.437,0-2.562,0-4.571-0.052
		c-0.553-0.026-0.874-0.026-0.874-0.183c0-0.104,0.087-0.156,0.204-0.182c0.175-0.052,0.35-0.286,0.175-0.702l-2.708-6.396
		c-0.058-0.104-0.117-0.155-0.262-0.155H7.307c-0.146,0-0.233,0.077-0.291,0.207l-1.747,4.603c-0.262,0.65-0.408,1.274-0.408,1.742
		c0,0.521,0.612,0.754,1.106,0.754h0.291c0.204,0,0.292,0.052,0.292,0.156c0,0.156-0.175,0.208-0.437,0.208
		c-0.699,0-1.95-0.078-2.271-0.078s-1.922,0.078-3.29,0.078C0.174,29.271,0,29.22,0,29.063c0-0.104,0.117-0.156,0.262-0.156
		c0.204,0,0.611-0.026,0.844-0.052c1.339-0.156,1.921-1.145,2.445-2.444L10.16,10.265z M13.188,20.665
		c0.146,0,0.146-0.078,0.117-0.182l-2.766-7.021c-0.146-0.39-0.291-0.39-0.437,0L7.54,20.483c-0.058,0.13,0,0.182,0.087,0.182
		H13.188z"/>
	<path fill="#4B1111" d="M36.885,23.629c0-1.794-0.059-2.054-1.106-2.236c-0.204-0.025-0.641-0.052-0.874-0.052
		c-0.087,0-0.204-0.104-0.204-0.182c0-0.156,0.116-0.183,0.408-0.183c1.164,0,2.882,0.053,3.027,0.053
		c0.117,0,1.718-0.053,2.504-0.053c0.291,0,0.408,0.026,0.408,0.183c0,0.078-0.117,0.182-0.204,0.182c-0.175,0-0.35,0-0.641,0.052
		c-0.699,0.104-0.902,0.442-0.961,1.223c-0.029,0.702-0.029,1.352-0.029,2.288v2.47c0,1.015-0.029,1.04-0.35,1.196
		c-1.63,0.754-3.959,0.988-5.444,0.988c-1.951,0-5.59-0.208-8.443-2.366c-1.572-1.17-3.057-3.536-3.057-6.292
		c0-3.537,2.009-6.033,4.28-7.255c2.3-1.248,4.862-1.404,6.812-1.404c1.631,0,3.436,0.26,3.931,0.364
		c0.524,0.104,1.427,0.234,2.067,0.234c0.262,0,0.32,0.104,0.32,0.208c0,0.312-0.146,0.91-0.146,3.12
		c0,0.364-0.117,0.468-0.291,0.468c-0.146,0-0.175-0.13-0.175-0.338c-0.029-0.286-0.175-0.936-0.583-1.456
		c-0.64-0.832-2.591-1.716-5.91-1.716c-1.543,0-3.407,0.104-5.357,1.43c-1.485,1.014-2.533,2.99-2.533,5.564
		c0,3.12,1.805,5.356,2.708,6.11c2.038,1.689,4.192,2.313,6.551,2.313c0.902,0,2.096-0.078,2.766-0.416
		c0.32-0.155,0.524-0.26,0.524-0.676V23.629z"/>
	<path fill="#4B1111" d="M46.083,18.949c0-3.433,0-4.057-0.058-4.758c-0.059-0.754-0.204-1.118-1.048-1.222
		c-0.204-0.026-0.641-0.052-0.874-0.052c-0.087,0-0.204-0.104-0.204-0.182c0-0.13,0.116-0.182,0.408-0.182
		c1.165,0,2.882,0.052,3.028,0.052c0.262,0,2.417-0.052,3.202-0.052c1.631,0,3.436,0.13,4.775,0.962
		c0.641,0.416,1.776,1.482,1.776,3.016c0,1.638-0.757,3.224-3.144,5.044c2.096,2.34,3.872,4.342,5.357,5.72
		c1.368,1.248,2.212,1.456,2.853,1.534c0.495,0.078,0.757,0.078,0.902,0.078s0.233,0.104,0.233,0.183
		c0,0.13-0.146,0.182-0.611,0.182h-1.601c-1.456,0-2.096-0.13-2.737-0.442c-1.106-0.52-2.038-1.586-3.494-3.25
		c-1.077-1.196-2.212-2.626-2.766-3.224c-0.117-0.104-0.175-0.131-0.35-0.131l-3.261-0.052c-0.116,0-0.175,0.052-0.175,0.183v0.52
		c0,2.132,0,3.849,0.117,4.758c0.087,0.65,0.233,1.066,1.019,1.171c0.349,0.052,0.902,0.104,1.135,0.104
		c0.175,0,0.204,0.104,0.204,0.183c0,0.104-0.117,0.182-0.408,0.182c-1.397,0-3.028-0.078-3.145-0.078
		c-0.029,0-1.747,0.078-2.533,0.078c-0.262,0-0.408-0.052-0.408-0.182c0-0.078,0.058-0.183,0.204-0.183
		c0.233,0,0.553-0.052,0.786-0.104c0.495-0.104,0.553-0.521,0.67-1.171c0.146-0.909,0.146-2.651,0.146-4.783V18.949z M48.295,20.821
		c0,0.13,0.059,0.208,0.175,0.286c0.378,0.182,1.688,0.338,2.824,0.338c0.611,0,1.31-0.026,1.921-0.391
		c0.874-0.52,1.543-1.689,1.543-3.38c0-2.756-1.688-4.342-4.425-4.342c-0.757,0-1.572,0.078-1.834,0.13
		c-0.117,0.052-0.204,0.13-0.204,0.26V20.821z"/>
	<path fill="#4B1111" d="M67.13,22.85c0,2.132,0,3.874,0.116,4.783c0.087,0.65,0.175,1.066,0.932,1.171
		c0.378,0.052,0.932,0.104,1.165,0.104c0.146,0,0.204,0.104,0.204,0.183c0,0.104-0.117,0.182-0.408,0.182
		c-1.427,0-3.086-0.078-3.203-0.078c-0.146,0-1.747,0.078-2.533,0.078c-0.262,0-0.408-0.052-0.408-0.182
		c0-0.078,0.058-0.183,0.204-0.183c0.232,0,0.553-0.052,0.786-0.104c0.495-0.104,0.583-0.521,0.67-1.171
		c0.116-0.909,0.146-2.651,0.146-4.783v-3.9c0-3.433,0-4.057-0.058-4.758c-0.059-0.754-0.262-1.092-0.815-1.196
		c-0.291-0.052-0.611-0.078-0.786-0.078c-0.116,0-0.204-0.104-0.204-0.182c0-0.13,0.116-0.182,0.408-0.182
		c0.844,0,2.445,0.052,2.591,0.052c0.117,0,1.776-0.052,2.562-0.052c0.292,0,0.408,0.052,0.408,0.182
		c0,0.078-0.116,0.182-0.204,0.182c-0.175,0-0.35,0-0.641,0.052c-0.699,0.13-0.844,0.442-0.903,1.222
		c-0.029,0.702-0.029,1.326-0.029,4.758V22.85z"/>
	<path fill="#4B1111" d="M78.396,21.783c0,3.822,0.116,5.486,0.641,5.954c0.466,0.416,1.223,0.598,3.493,0.598
		c1.543,0,2.824-0.025,3.523-0.779c0.378-0.416,0.669-1.066,0.757-1.561c0.029-0.208,0.087-0.338,0.262-0.338
		c0.146,0,0.175,0.104,0.175,0.39c0,0.286-0.204,1.847-0.437,2.601c-0.204,0.598-0.291,0.702-1.834,0.702
		c-2.096,0-3.61-0.053-4.833-0.078c-1.223-0.052-2.125-0.078-2.969-0.078c-0.117,0-0.612,0.026-1.194,0.026
		c-0.583,0.025-1.223,0.052-1.66,0.052c-0.32,0-0.466-0.052-0.466-0.208c0-0.078,0.059-0.156,0.233-0.156
		c0.262,0,0.611-0.052,0.874-0.104c0.582-0.104,0.728-0.677,0.844-1.431c0.146-1.092,0.146-3.146,0.146-5.642v-4.577
		c0-4.056,0-4.784-0.058-5.616c-0.058-0.884-0.291-1.3-1.252-1.482c-0.233-0.052-0.728-0.078-0.99-0.078
		c-0.117,0-0.233-0.052-0.233-0.156c0-0.156,0.146-0.208,0.466-0.208c1.31,0,3.144,0.078,3.29,0.078
		c0.146,0,2.271-0.078,3.144-0.078c0.32,0,0.466,0.052,0.466,0.208c0,0.104-0.117,0.156-0.233,0.156
		c-0.204,0-0.611,0.026-0.961,0.078c-0.844,0.13-1.077,0.572-1.135,1.482c-0.058,0.832-0.058,1.56-0.058,5.616V21.783z"/>
	<path fill="#4B1111" d="M93.971,22.85c0,2.132,0,3.874,0.116,4.783c0.087,0.65,0.175,1.066,0.932,1.171
		c0.379,0.052,0.932,0.104,1.165,0.104c0.146,0,0.204,0.104,0.204,0.183c0,0.104-0.117,0.182-0.408,0.182
		c-1.427,0-3.086-0.078-3.203-0.078c-0.146,0-1.747,0.078-2.533,0.078c-0.262,0-0.408-0.052-0.408-0.182
		c0-0.078,0.058-0.183,0.204-0.183c0.233,0,0.553-0.052,0.786-0.104c0.495-0.104,0.583-0.521,0.67-1.171
		c0.116-0.909,0.146-2.651,0.146-4.783v-3.9c0-3.433,0-4.057-0.058-4.758c-0.059-0.754-0.262-1.092-0.815-1.196
		c-0.291-0.052-0.611-0.078-0.786-0.078c-0.116,0-0.204-0.104-0.204-0.182c0-0.13,0.116-0.182,0.408-0.182
		c0.844,0,2.445,0.052,2.591,0.052c0.117,0,1.776-0.052,2.562-0.052c0.291,0,0.408,0.052,0.408,0.182
		c0,0.078-0.117,0.182-0.204,0.182c-0.175,0-0.35,0-0.641,0.052c-0.699,0.13-0.844,0.442-0.902,1.222
		c-0.029,0.702-0.029,1.326-0.029,4.758V22.85z"/>
	<path fill="#4B1111" d="M101.54,18.949c0-3.433,0-4.057-0.058-4.758c-0.059-0.754-0.204-1.118-1.048-1.222
		c-0.204-0.026-0.641-0.052-0.874-0.052c-0.087,0-0.204-0.104-0.204-0.182c0-0.13,0.117-0.182,0.408-0.182
		c1.165,0,2.766,0.052,2.911,0.052c0.495,0,6.056,0.026,6.638,0c0.495-0.026,0.931-0.026,1.165-0.104
		c0.146-0.026,0.261-0.13,0.349-0.13c0.117,0,0.174,0.104,0.174,0.208c0,0.156-0.115,0.416-0.203,1.04
		c-0.029,0.208-0.059,1.196-0.115,1.456c-0.03,0.104-0.118,0.234-0.234,0.234s-0.204-0.104-0.204-0.26
		c0-0.182-0.087-0.546-0.232-0.832s-0.757-0.65-1.747-0.65l-4.192-0.052c-0.146,0-0.204,0.052-0.204,0.234v6.032
		c0,0.13,0,0.208,0.175,0.208l3.494-0.026c0.437,0,0.815,0,1.165-0.025c0.611-0.053,0.96-0.131,1.194-0.391
		c0.116-0.13,0.232-0.234,0.32-0.234c0.116,0,0.146,0.078,0.146,0.183c0,0.13-0.175,0.494-0.233,1.222
		c-0.059,0.442-0.087,1.326-0.087,1.482c0,0.208-0.059,0.441-0.233,0.441c-0.146,0-0.175-0.104-0.175-0.207
		c-0.028-0.234-0.058-0.547-0.175-0.807c-0.116-0.312-0.523-0.598-1.31-0.702c-0.641-0.078-3.668-0.052-4.105-0.052
		c-0.146,0-0.175,0.052-0.175,0.208v1.769c0,2.184,0,3.926,0.116,4.783c0.087,0.65,0.233,1.066,0.932,1.171
		c0.378,0.052,0.932,0.104,1.165,0.104c0.146,0,0.204,0.104,0.204,0.183c0,0.104-0.117,0.182-0.408,0.182
		c-1.427,0-3.086-0.078-3.203-0.078c-0.146,0-1.747,0.078-2.533,0.078c-0.262,0-0.408-0.052-0.408-0.182
		c0-0.078,0.058-0.183,0.204-0.183c0.232,0,0.553-0.078,0.786-0.104c0.495-0.078,0.553-0.521,0.67-1.171
		c0.146-0.909,0.146-2.651,0.146-4.783V18.949z"/>
	<path fill="#4B1111" d="M116.27,18.949c0-3.433,0-4.057-0.059-4.758c-0.059-0.754-0.203-1.118-1.049-1.222
		c-0.203-0.026-0.641-0.052-0.873-0.052c-0.088,0-0.203-0.104-0.203-0.182c0-0.13,0.115-0.182,0.406-0.182
		c1.166,0,2.824,0.052,2.971,0.052c0.174,0,5.531,0.026,6.113,0c0.496-0.026,0.961-0.104,1.164-0.13
		c0.117-0.026,0.234-0.104,0.35-0.104c0.088,0,0.117,0.104,0.117,0.208c0,0.156-0.146,0.416-0.203,1.04
		c-0.029,0.208-0.088,1.196-0.146,1.456c-0.029,0.104-0.117,0.234-0.232,0.234c-0.146,0-0.205-0.104-0.205-0.286
		c0-0.156-0.027-0.52-0.145-0.78c-0.176-0.364-0.438-0.52-1.834-0.676c-0.438-0.052-3.406-0.078-3.697-0.078
		c-0.117,0-0.146,0.078-0.146,0.234v6.006c0,0.156,0,0.234,0.146,0.234c0.32,0,3.697,0,4.279-0.052
		c0.611-0.052,0.99-0.078,1.252-0.312c0.174-0.155,0.291-0.286,0.379-0.286c0.086,0,0.145,0.053,0.145,0.183
		s-0.145,0.494-0.203,1.222c-0.059,0.442-0.117,1.274-0.117,1.431c0,0.182-0.059,0.416-0.232,0.416
		c-0.117,0-0.174-0.078-0.174-0.208c0-0.208,0-0.442-0.117-0.729c-0.088-0.312-0.32-0.572-1.311-0.676
		c-0.699-0.078-3.436-0.104-3.871-0.104c-0.146,0-0.176,0.078-0.176,0.156v1.847c0,0.754-0.029,3.328,0,3.77
		c0.059,1.482,0.525,1.769,3.057,1.769c0.67,0,1.893,0,2.562-0.234c0.67-0.26,1.02-0.65,1.164-1.534
		c0.059-0.26,0.117-0.338,0.264-0.338c0.145,0,0.174,0.182,0.174,0.338s-0.203,1.664-0.35,2.132
		c-0.174,0.572-0.438,0.572-1.426,0.572c-1.922,0-3.406-0.052-4.455-0.078c-1.078-0.052-1.746-0.052-2.125-0.052
		c-0.059,0-0.553,0-1.107,0.026c-0.494,0.025-1.076,0.052-1.484,0.052c-0.262,0-0.406-0.052-0.406-0.182
		c0-0.078,0.057-0.183,0.203-0.183c0.232,0,0.553-0.078,0.785-0.104c0.496-0.078,0.555-0.521,0.67-1.171
		c0.146-0.909,0.146-2.651,0.146-4.783V18.949z"/>
</g>
</svg>
