<?xml version="1.0" encoding="utf-8"?>
<!-- Generator: Adobe Illustrator 23.1.1, SVG Export Plug-In . SVG Version: 6.00 Build 0)  -->
<svg version="1.1" id="Layer_1" xmlns="http://www.w3.org/2000/svg" xmlns:xlink="http://www.w3.org/1999/xlink" x="0px" y="0px"
	 viewBox="0 0 452 76" style="enable-background:new 0 0 452 76;" xml:space="preserve">
<style type="text/css">
	.st0{fill:#000000;}
	.st1{fill:url(#SVGID_1_);}
</style>
<g>
	<path class="st0" d="M297.4,58.6V24.8h-5.6v-7.3h20.4v7.3h-5.6v33.8L297.4,58.6L297.4,58.6z"/>
	<path class="st0" d="M333.1,58.9h-5.9c-5.7,0-8.5-2.5-8.5-7.6V24.7c0-5.1,2.8-7.6,8.5-7.6h5.9c5.7,0,8.6,2.5,8.6,7.6v26.5
		C341.7,56.4,338.8,58.9,333.1,58.9z M330.8,24.1h-1.3c-1.1,0-1.6,0.5-1.6,1.5v24.8c0,1,0.5,1.5,1.6,1.5h1.3c1.1,0,1.6-0.5,1.6-1.5
		V25.6C332.5,24.6,331.9,24.1,330.8,24.1z"/>
	<path class="st0" d="M349.4,17.5h13c6.6,0,9.9,2.9,9.9,8.8v23.5c0,5.9-3.2,8.8-9.9,8.8h-13L349.4,17.5L349.4,17.5z M358.6,51.5h1.8
		c1.8,0,2.6-0.7,2.6-2.3V26.8c0-1.6-0.8-2.3-2.6-2.3h-1.8V51.5z"/>
	<path class="st0" d="M393.8,58.6l-0.7-6h-5.8l-0.7,6h-8.4l6-41.1h12.6l6,41.1H393.8z M388.2,45.4h4.1l-2-17.9L388.2,45.4z"/>
	<path class="st0" d="M422.4,58.6h-9.2v-14l-7.8-27.1h9.6l3.1,14l3.3-14h8.7l-7.8,26.5L422.4,58.6L422.4,58.6L422.4,58.6z"/>
</g>
<g>
	<path class="st0" d="M20.3,20.5c0.7-1.7,0.9-2,1.3-2s0.6,0.3,1.3,1.9c0.9,2,10,23.5,13.6,31.4c2.1,4.6,3.8,5.5,5,5.8
		c0.9,0.3,1.7,0.3,2.3,0.3c0.3,0,0.6,0.1,0.6,0.3c0,0.3-0.5,0.4-1.2,0.4c-0.9,0-5.1,0-9.1-0.1c-1.1-0.1-1.7-0.1-1.7-0.4
		c0-0.2,0.2-0.3,0.4-0.4c0.4-0.1,0.7-0.6,0.4-1.4l-5.4-12.8c-0.1-0.2-0.2-0.3-0.5-0.3H14.6c-0.3,0-0.5,0.2-0.6,0.4l-3.5,9.2
		c-0.5,1.3-0.8,2.5-0.8,3.5c0,1,1.2,1.5,2.2,1.5h0.6c0.4,0,0.6,0.1,0.6,0.3c0,0.3-0.3,0.4-0.9,0.4c-1.4,0-3.9-0.2-4.5-0.2
		c-0.6,0-3.8,0.2-6.6,0.2c-0.8,0-1.1-0.1-1.1-0.4c0-0.2,0.2-0.3,0.5-0.3c0.4,0,1.2-0.1,1.7-0.1c2.7-0.3,3.8-2.3,4.9-4.9L20.3,20.5z
		 M26.4,41.3c0.3,0,0.3-0.2,0.2-0.4l-5.5-14c-0.3-0.8-0.6-0.8-0.9,0l-5.1,14c-0.1,0.3,0,0.4,0.2,0.4H26.4z"/>
	<path class="st0" d="M73.8,47.3c0-3.6-0.1-4.1-2.2-4.5c-0.4,0-1.3-0.1-1.7-0.1c-0.2,0-0.4-0.2-0.4-0.4c0-0.3,0.2-0.4,0.8-0.4
		c2.3,0,5.8,0.1,6.1,0.1c0.2,0,3.4-0.1,5-0.1c0.6,0,0.8,0,0.8,0.4c0,0.2-0.2,0.4-0.4,0.4c-0.4,0-0.7,0-1.3,0.1
		c-1.4,0.2-1.8,0.9-1.9,2.4c-0.1,1.4-0.1,2.7-0.1,4.6v4.9c0,2-0.1,2.1-0.7,2.4c-3.3,1.5-7.9,2-10.9,2c-3.9,0-11.2-0.4-16.9-4.7
		c-3.1-2.3-6.1-7.1-6.1-12.6c0-7.1,4-12.1,8.6-14.5c4.6-2.5,9.7-2.8,13.6-2.8c3.3,0,6.9,0.5,7.9,0.7c1,0.2,2.9,0.5,4.1,0.5
		c0.5,0,0.6,0.2,0.6,0.4c0,0.6-0.3,1.8-0.3,6.2c0,0.7-0.2,0.9-0.6,0.9c-0.3,0-0.4-0.3-0.4-0.7c-0.1-0.6-0.3-1.9-1.2-2.9
		c-1.3-1.7-5.2-3.4-11.8-3.4c-3.1,0-6.8,0.2-10.7,2.9c-3,2-5.1,6-5.1,11.1c0,6.2,3.6,10.7,5.4,12.2c4.1,3.4,8.4,4.6,13.1,4.6
		c1.8,0,4.2-0.2,5.5-0.8c0.6-0.3,1-0.5,1-1.4L73.8,47.3L73.8,47.3L73.8,47.3z"/>
	<path class="st0" d="M92.2,37.9c0-6.9,0-8.1-0.1-9.5c-0.1-1.5-0.4-2.2-2.1-2.4c-0.4-0.1-1.3-0.1-1.7-0.1c-0.2,0-0.4-0.2-0.4-0.4
		c0-0.3,0.2-0.4,0.8-0.4c2.3,0,5.8,0.1,6.1,0.1c0.5,0,4.8-0.1,6.4-0.1c3.3,0,6.9,0.3,9.6,1.9c1.3,0.8,3.6,3,3.6,6
		c0,3.3-1.5,6.4-6.3,10.1c4.2,4.7,7.7,8.7,10.7,11.4c2.7,2.5,4.4,2.9,5.7,3.1c1,0.2,1.5,0.2,1.8,0.2c0.3,0,0.5,0.2,0.5,0.4
		c0,0.3-0.3,0.4-1.2,0.4h-3.2c-2.9,0-4.2-0.3-5.5-0.9c-2.2-1-4.1-3.2-7-6.5c-2.2-2.4-4.4-5.3-5.5-6.5c-0.2-0.2-0.4-0.3-0.7-0.3
		l-6.5-0.1c-0.2,0-0.4,0.1-0.4,0.4v1c0,4.3,0,7.7,0.2,9.5c0.2,1.3,0.5,2.1,2,2.3c0.7,0.1,1.8,0.2,2.3,0.2c0.4,0,0.4,0.2,0.4,0.4
		c0,0.2-0.2,0.4-0.8,0.4c-2.8,0-6.1-0.2-6.3-0.2c-0.1,0-3.5,0.2-5.1,0.2c-0.5,0-0.8-0.1-0.8-0.4c0-0.2,0.1-0.4,0.4-0.4
		c0.5,0,1.1-0.1,1.6-0.2c1-0.2,1.1-1,1.3-2.3c0.3-1.8,0.3-5.3,0.3-9.6L92.2,37.9L92.2,37.9L92.2,37.9L92.2,37.9z M96.6,41.6
		c0,0.3,0.1,0.4,0.4,0.6c0.8,0.4,3.4,0.7,5.6,0.7c1.2,0,2.6-0.1,3.8-0.8c1.7-1,3.1-3.4,3.1-6.8c0-5.5-3.4-8.7-8.8-8.7
		c-1.5,0-3.1,0.2-3.7,0.3c-0.2,0.1-0.4,0.3-0.4,0.5V41.6z"/>
	<path class="st0" d="M134.3,45.7c0,4.3,0,7.8,0.2,9.6c0.2,1.3,0.3,2.1,1.9,2.3c0.8,0.1,1.9,0.2,2.3,0.2c0.3,0,0.4,0.2,0.4,0.4
		c0,0.2-0.2,0.4-0.8,0.4c-2.9,0-6.2-0.2-6.4-0.2c-0.3,0-3.5,0.2-5.1,0.2c-0.5,0-0.8-0.1-0.8-0.4c0-0.2,0.1-0.4,0.4-0.4
		c0.5,0,1.1-0.1,1.6-0.2c1-0.2,1.2-1,1.3-2.3c0.2-1.8,0.3-5.3,0.3-9.6v-7.8c0-6.9,0-8.1-0.1-9.5c-0.1-1.5-0.5-2.2-1.6-2.4
		c-0.6-0.1-1.2-0.2-1.6-0.2c-0.2,0-0.4-0.2-0.4-0.4c0-0.3,0.2-0.4,0.8-0.4c1.7,0,4.9,0.1,5.2,0.1c0.2,0,3.6-0.1,5.1-0.1
		c0.6,0,0.8,0.1,0.8,0.4c0,0.2-0.2,0.4-0.4,0.4c-0.4,0-0.7,0-1.3,0.1c-1.4,0.3-1.7,0.9-1.8,2.4c-0.1,1.4-0.1,2.7-0.1,9.5
		C134.3,37.9,134.3,45.7,134.3,45.7z"/>
	<path class="st0" d="M156.8,43.6c0,7.6,0.2,11,1.3,11.9c0.9,0.8,2.4,1.2,7,1.2c3.1,0,5.6,0,7-1.6c0.8-0.8,1.3-2.1,1.5-3.1
		c0.1-0.4,0.2-0.7,0.5-0.7c0.3,0,0.4,0.2,0.4,0.8s-0.4,3.7-0.9,5.2c-0.4,1.2-0.6,1.4-3.7,1.4c-4.2,0-7.2-0.1-9.7-0.2
		c-2.4-0.1-4.2-0.2-5.9-0.2c-0.2,0-1.2,0.1-2.4,0.1c-1.2,0-2.4,0.1-3.3,0.1c-0.6,0-0.9-0.1-0.9-0.4c0-0.2,0.1-0.3,0.5-0.3
		c0.5,0,1.2-0.1,1.7-0.2c1.2-0.2,1.5-1.4,1.7-2.9c0.3-2.2,0.3-6.3,0.3-11.3v-9.2c0-8.1,0-9.6-0.1-11.2c-0.1-1.8-0.6-2.6-2.5-3
		c-0.5-0.1-1.5-0.2-2-0.2c-0.2,0-0.5-0.1-0.5-0.3c0-0.3,0.3-0.4,0.9-0.4c2.6,0,6.3,0.2,6.6,0.2c0.3,0,4.5-0.2,6.3-0.2
		c0.6,0,0.9,0.1,0.9,0.4c0,0.2-0.2,0.3-0.5,0.3c-0.4,0-1.2,0.1-1.9,0.2c-1.7,0.3-2.2,1.1-2.3,3c-0.1,1.7-0.1,3.1-0.1,11.2
		L156.8,43.6L156.8,43.6z"/>
	<path class="st0" d="M187.9,45.7c0,4.3,0,7.8,0.2,9.6c0.2,1.3,0.4,2.1,1.9,2.3c0.8,0.1,1.9,0.2,2.3,0.2c0.3,0,0.4,0.2,0.4,0.4
		c0,0.2-0.2,0.4-0.8,0.4c-2.9,0-6.2-0.2-6.4-0.2c-0.3,0-3.5,0.2-5.1,0.2c-0.5,0-0.8-0.1-0.8-0.4c0-0.2,0.1-0.4,0.4-0.4
		c0.5,0,1.1-0.1,1.6-0.2c1-0.2,1.2-1,1.3-2.3c0.2-1.8,0.3-5.3,0.3-9.6v-7.8c0-6.9,0-8.1-0.1-9.5c-0.1-1.5-0.5-2.2-1.6-2.4
		c-0.6-0.1-1.2-0.2-1.6-0.2c-0.2,0-0.4-0.2-0.4-0.4c0-0.3,0.2-0.4,0.8-0.4c1.7,0,4.9,0.1,5.2,0.1c0.2,0,3.6-0.1,5.1-0.1
		c0.6,0,0.8,0.1,0.8,0.4c0,0.2-0.2,0.4-0.4,0.4c-0.4,0-0.7,0-1.3,0.1c-1.4,0.3-1.7,0.9-1.8,2.4c-0.1,1.4-0.1,2.7-0.1,9.5L187.9,45.7
		L187.9,45.7z"/>
	<path class="st0" d="M203.1,37.9c0-6.9,0-8.1-0.1-9.5c-0.1-1.5-0.4-2.2-2.1-2.4c-0.4-0.1-1.3-0.1-1.7-0.1c-0.2,0-0.4-0.2-0.4-0.4
		c0-0.3,0.2-0.4,0.8-0.4c2.3,0,5.5,0.1,5.8,0.1c1,0,12.1,0.1,13.3,0c1-0.1,1.9-0.1,2.3-0.2c0.3-0.1,0.5-0.3,0.7-0.3
		c0.2,0,0.3,0.2,0.3,0.4c0,0.3-0.2,0.8-0.4,2.1c-0.1,0.4-0.1,2.4-0.2,2.9c-0.1,0.2-0.2,0.5-0.5,0.5s-0.4-0.2-0.4-0.5
		c0-0.4-0.2-1.1-0.5-1.7c-0.3-0.6-1.5-1.3-3.5-1.3l-8.4-0.1c-0.3,0-0.4,0.1-0.4,0.5v12.1c0,0.3,0,0.4,0.3,0.4l7-0.1
		c0.9,0,1.6,0,2.3-0.1c1.2-0.1,1.9-0.3,2.4-0.8c0.2-0.3,0.5-0.5,0.6-0.5c0.2,0,0.3,0.2,0.3,0.4c0,0.3-0.3,1-0.5,2.4
		c-0.1,0.9-0.2,2.7-0.2,3c0,0.4-0.1,0.9-0.5,0.9c-0.3,0-0.3-0.2-0.3-0.4c-0.1-0.5-0.1-1.1-0.4-1.6c-0.2-0.6-1-1.2-2.6-1.4
		c-1.3-0.2-7.3-0.1-8.2-0.1c-0.3,0-0.4,0.1-0.4,0.4v3.5c0,4.4,0,7.9,0.2,9.6c0.2,1.3,0.5,2.1,1.9,2.3c0.8,0.1,1.9,0.2,2.3,0.2
		c0.3,0,0.4,0.2,0.4,0.4c0,0.2-0.2,0.4-0.8,0.4c-2.9,0-6.2-0.2-6.4-0.2c-0.3,0-3.5,0.2-5.1,0.2c-0.5,0-0.8-0.1-0.8-0.4
		c0-0.2,0.1-0.4,0.4-0.4c0.5,0,1.1-0.2,1.6-0.2c1-0.2,1.1-1,1.3-2.3c0.3-1.8,0.3-5.3,0.3-9.6L203.1,37.9L203.1,37.9L203.1,37.9z"/>
	<path class="st0" d="M232.5,37.9c0-6.9,0-8.1-0.1-9.5c-0.1-1.5-0.4-2.2-2.1-2.4c-0.4-0.1-1.3-0.1-1.7-0.1c-0.2,0-0.4-0.2-0.4-0.4
		c0-0.3,0.2-0.4,0.8-0.4c2.3,0,5.6,0.1,5.9,0.1c0.3,0,11.1,0.1,12.2,0c1-0.1,1.9-0.2,2.3-0.3c0.2-0.1,0.5-0.2,0.7-0.2
		c0.2,0,0.2,0.2,0.2,0.4c0,0.3-0.3,0.8-0.4,2.1c-0.1,0.4-0.2,2.4-0.3,2.9c-0.1,0.2-0.2,0.5-0.5,0.5c-0.3,0-0.4-0.2-0.4-0.6
		c0-0.3-0.1-1-0.3-1.6c-0.4-0.7-0.9-1-3.7-1.4c-0.9-0.1-6.8-0.2-7.4-0.2c-0.2,0-0.3,0.2-0.3,0.5v12c0,0.3,0,0.5,0.3,0.5
		c0.6,0,7.4,0,8.6-0.1c1.2-0.1,2-0.2,2.5-0.6c0.4-0.3,0.6-0.6,0.8-0.6s0.3,0.1,0.3,0.4s-0.3,1-0.4,2.4c-0.1,0.9-0.2,2.5-0.2,2.9
		c0,0.4-0.1,0.8-0.5,0.8c-0.2,0-0.3-0.2-0.3-0.4c0-0.4,0-0.9-0.2-1.5c-0.2-0.6-0.6-1.1-2.6-1.4c-1.4-0.2-6.9-0.2-7.7-0.2
		c-0.3,0-0.4,0.2-0.4,0.3v3.7c0,1.5-0.1,6.7,0,7.5c0.1,3,1,3.5,6.1,3.5c1.3,0,3.8,0,5.1-0.5c1.3-0.5,2-1.3,2.3-3.1
		c0.1-0.5,0.2-0.7,0.5-0.7c0.3,0,0.3,0.4,0.3,0.7c0,0.3-0.4,3.3-0.7,4.3c-0.4,1.1-0.9,1.1-2.9,1.1c-3.8,0-6.8-0.1-8.9-0.2
		c-2.2-0.1-3.5-0.1-4.2-0.1c-0.1,0-1.1,0-2.2,0.1c-1,0-2.2,0.1-3,0.1c-0.5,0-0.8-0.1-0.8-0.4c0-0.2,0.1-0.4,0.4-0.4
		c0.5,0,1.1-0.2,1.6-0.2c1-0.2,1.1-1,1.3-2.3c0.3-1.8,0.3-5.3,0.3-9.6L232.5,37.9L232.5,37.9L232.5,37.9L232.5,37.9z"/>
</g>
<g>
	<linearGradient id="SVGID_1_" gradientUnits="userSpaceOnUse" x1="296.5476" y1="102.5477" x2="425.4524" y2="-26.357">
		<stop  offset="0" style="stop-color:#28A8E0"/>
		<stop  offset="1" style="stop-color:#B4D234"/>
	</linearGradient>
	<path class="st1" d="M450,2.2V74H272V2.2H450 M452,0.2H270V76h182V0.2L452,0.2z"/>
</g>
</svg>
