<?xml version="1.0" encoding="utf-8"?>
<!-- Generator: Adobe Illustrator 16.0.4, SVG Export Plug-In . SVG Version: 6.00 Build 0)  -->
<!DOCTYPE svg PUBLIC "-//W3C//DTD SVG 1.1//EN" "http://www.w3.org/Graphics/SVG/1.1/DTD/svg11.dtd">
<svg version="1.1" id="Layer_1" xmlns="http://www.w3.org/2000/svg" xmlns:xlink="http://www.w3.org/1999/xlink" x="0px" y="0px"
	 width="226px" height="38px" viewBox="0 0 226 38" enable-background="new 0 0 226 38" xml:space="preserve">
<g>
	<path fill="#28A9E1" d="M226,38h-91V0h91V38z M136,37h89V1h-89V37z"/>
</g>
<g>
	<path fill="#FFFFFF" d="M148.709,29.275v-16.88h-2.795v-3.67h10.193v3.67h-2.795v16.88H148.709L148.709,29.275z"/>
	<path fill="#FFFFFF" d="M166.561,29.451h-2.959c-2.86,0-4.274-1.262-4.274-3.816v-13.27c0-2.554,1.414-3.816,4.274-3.816h2.959
		c2.861,0,4.275,1.262,4.275,3.816v13.27C170.836,28.189,169.422,29.451,166.561,29.451z M165.411,12.072h-0.658
		c-0.56,0-0.821,0.235-0.821,0.734v12.389c0,0.498,0.264,0.734,0.821,0.734h0.658c0.56,0,0.821-0.236,0.821-0.734V12.806
		C166.232,12.307,165.969,12.072,165.411,12.072z"/>
	<path fill="#FFFFFF" d="M174.68,8.725h6.478c3.321,0,4.934,1.439,4.934,4.404v11.745c0,2.965-1.61,4.401-4.934,4.401h-6.478V8.725z
		 M179.284,25.754h0.92c0.889,0,1.282-0.354,1.282-1.146V13.393c0-0.792-0.395-1.145-1.282-1.145h-0.92V25.754z"/>
	<path fill="#FFFFFF" d="M196.904,29.275l-0.36-2.994h-2.896l-0.328,2.994h-4.176l3.025-20.551h6.279l3.025,20.551H196.904z
		 M194.077,22.699h2.039l-1.021-8.954L194.077,22.699z"/>
	<path fill="#FFFFFF" d="M211.206,29.275h-4.604V22.26l-3.881-13.535h4.801l1.547,6.987l1.646-6.987h4.373l-3.881,13.24V29.275z"/>
</g>
<g>
	<path fill="#FFFFFF" d="M10.16,10.265c0.35-0.858,0.466-1.014,0.641-1.014c0.175,0,0.291,0.13,0.641,0.936
		c0.437,0.988,5.007,11.727,6.783,15.679c1.048,2.313,1.893,2.729,2.504,2.886c0.437,0.13,0.874,0.156,1.165,0.156
		c0.175,0,0.291,0.025,0.291,0.156c0,0.156-0.262,0.207-0.582,0.207c-0.437,0-2.562,0-4.571-0.051
		c-0.553-0.027-0.874-0.027-0.874-0.184c0-0.104,0.087-0.156,0.204-0.182c0.175-0.053,0.35-0.287,0.175-0.703l-2.708-6.396
		c-0.058-0.104-0.117-0.155-0.262-0.155h-6.26c-0.146,0-0.233,0.078-0.291,0.207l-1.747,4.604c-0.262,0.65-0.408,1.273-0.408,1.742
		c0,0.521,0.612,0.754,1.106,0.754h0.291c0.204,0,0.292,0.052,0.292,0.156c0,0.156-0.175,0.207-0.437,0.207
		c-0.699,0-1.95-0.078-2.271-0.078c-0.321,0-1.922,0.078-3.29,0.078C0.174,29.271,0,29.221,0,29.062
		c0-0.104,0.117-0.155,0.262-0.155c0.204,0,0.611-0.026,0.844-0.052c1.339-0.156,1.921-1.146,2.445-2.444L10.16,10.265z
		 M13.188,20.665c0.146,0,0.146-0.078,0.117-0.183l-2.766-7.021c-0.146-0.39-0.291-0.39-0.437,0L7.54,20.482
		c-0.058,0.131,0,0.183,0.087,0.183H13.188z"/>
	<path fill="#FFFFFF" d="M36.885,23.629c0-1.794-0.059-2.054-1.106-2.236c-0.204-0.024-0.641-0.052-0.874-0.052
		c-0.087,0-0.204-0.104-0.204-0.182c0-0.156,0.116-0.183,0.408-0.183c1.164,0,2.882,0.053,3.027,0.053
		c0.117,0,1.718-0.053,2.504-0.053c0.291,0,0.408,0.025,0.408,0.183c0,0.077-0.117,0.182-0.204,0.182c-0.175,0-0.35,0-0.641,0.052
		c-0.699,0.104-0.902,0.442-0.961,1.224c-0.029,0.702-0.029,1.352-0.029,2.288v2.47c0,1.015-0.029,1.04-0.35,1.196
		c-1.63,0.754-3.959,0.988-5.444,0.988c-1.951,0-5.59-0.209-8.443-2.367c-1.572-1.17-3.057-3.535-3.057-6.291
		c0-3.538,2.009-6.033,4.28-7.255c2.3-1.248,4.862-1.404,6.812-1.404c1.631,0,3.436,0.26,3.931,0.364
		c0.524,0.104,1.427,0.234,2.067,0.234c0.262,0,0.32,0.104,0.32,0.208c0,0.312-0.146,0.91-0.146,3.12
		c0,0.364-0.117,0.468-0.291,0.468c-0.146,0-0.175-0.13-0.175-0.338c-0.029-0.286-0.175-0.936-0.583-1.456
		c-0.64-0.832-2.591-1.716-5.91-1.716c-1.543,0-3.407,0.104-5.357,1.43c-1.485,1.014-2.533,2.99-2.533,5.564
		c0,3.12,1.805,5.355,2.708,6.109c2.038,1.689,4.192,2.313,6.551,2.313c0.902,0,2.096-0.078,2.766-0.416
		c0.32-0.155,0.524-0.26,0.524-0.676v-3.821H36.885z"/>
	<path fill="#FFFFFF" d="M46.083,18.949c0-3.433,0-4.057-0.058-4.758c-0.059-0.754-0.204-1.118-1.048-1.222
		c-0.204-0.026-0.641-0.052-0.874-0.052c-0.087,0-0.204-0.104-0.204-0.182c0-0.13,0.116-0.182,0.408-0.182
		c1.165,0,2.882,0.052,3.028,0.052c0.262,0,2.417-0.052,3.202-0.052c1.631,0,3.436,0.13,4.775,0.962
		c0.641,0.416,1.776,1.482,1.776,3.016c0,1.638-0.757,3.224-3.144,5.044c2.096,2.34,3.872,4.342,5.357,5.72
		c1.368,1.248,2.212,1.456,2.853,1.534c0.495,0.078,0.757,0.078,0.902,0.078s0.233,0.104,0.233,0.183
		c0,0.131-0.146,0.182-0.611,0.182h-1.601c-1.456,0-2.096-0.129-2.737-0.441c-1.106-0.52-2.038-1.586-3.494-3.25
		c-1.077-1.196-2.212-2.626-2.766-3.225c-0.117-0.104-0.175-0.131-0.35-0.131l-3.261-0.052c-0.116,0-0.175,0.052-0.175,0.183v0.521
		c0,2.132,0,3.849,0.117,4.758c0.087,0.65,0.233,1.066,1.019,1.171c0.349,0.053,0.902,0.104,1.135,0.104
		c0.175,0,0.204,0.104,0.204,0.183c0,0.104-0.117,0.182-0.408,0.182c-1.397,0-3.028-0.078-3.145-0.078
		c-0.029,0-1.747,0.078-2.533,0.078c-0.262,0-0.408-0.051-0.408-0.182c0-0.078,0.058-0.183,0.204-0.183
		c0.233,0,0.553-0.052,0.786-0.104c0.495-0.104,0.553-0.521,0.67-1.171c0.146-0.909,0.146-2.651,0.146-4.782v-3.902H46.083z
		 M48.295,20.82c0,0.131,0.059,0.209,0.175,0.287c0.378,0.182,1.688,0.338,2.824,0.338c0.611,0,1.31-0.026,1.921-0.391
		c0.874-0.521,1.543-1.689,1.543-3.381c0-2.756-1.688-4.342-4.425-4.342c-0.757,0-1.572,0.078-1.834,0.13
		c-0.117,0.052-0.204,0.13-0.204,0.26V20.82z"/>
	<path fill="#FFFFFF" d="M67.13,22.85c0,2.133,0,3.875,0.116,4.783c0.087,0.65,0.175,1.066,0.932,1.172
		c0.378,0.051,0.932,0.104,1.165,0.104c0.146,0,0.204,0.104,0.204,0.183c0,0.104-0.117,0.183-0.408,0.183
		c-1.427,0-3.086-0.078-3.203-0.078c-0.146,0-1.747,0.078-2.533,0.078c-0.262,0-0.408-0.053-0.408-0.183
		c0-0.077,0.058-0.183,0.204-0.183c0.232,0,0.553-0.053,0.786-0.104c0.495-0.104,0.583-0.521,0.67-1.172
		c0.116-0.908,0.146-2.65,0.146-4.783V18.95c0-3.433,0-4.057-0.058-4.758c-0.059-0.754-0.262-1.092-0.815-1.196
		c-0.291-0.052-0.611-0.078-0.786-0.078c-0.116,0-0.204-0.104-0.204-0.182c0-0.13,0.116-0.182,0.408-0.182
		c0.844,0,2.445,0.052,2.591,0.052c0.117,0,1.776-0.052,2.562-0.052c0.292,0,0.408,0.052,0.408,0.182
		c0,0.078-0.116,0.182-0.204,0.182c-0.175,0-0.35,0-0.641,0.052c-0.699,0.13-0.844,0.442-0.903,1.222
		c-0.029,0.702-0.029,1.326-0.029,4.758V22.85z"/>
	<path fill="#FFFFFF" d="M78.396,21.783c0,3.822,0.116,5.486,0.641,5.953c0.466,0.416,1.223,0.599,3.493,0.599
		c1.543,0,2.824-0.024,3.523-0.778c0.378-0.416,0.669-1.066,0.757-1.562c0.029-0.208,0.087-0.338,0.262-0.338
		c0.146,0,0.175,0.104,0.175,0.39s-0.204,1.848-0.437,2.602c-0.204,0.598-0.291,0.701-1.834,0.701c-2.096,0-3.61-0.053-4.833-0.078
		c-1.223-0.051-2.125-0.078-2.969-0.078c-0.117,0-0.612,0.027-1.194,0.027c-0.583,0.024-1.223,0.051-1.66,0.051
		c-0.32,0-0.466-0.051-0.466-0.207c0-0.078,0.059-0.156,0.233-0.156c0.262,0,0.611-0.053,0.874-0.104
		c0.582-0.104,0.728-0.678,0.844-1.432c0.146-1.092,0.146-3.146,0.146-5.643v-4.577c0-4.056,0-4.784-0.058-5.616
		c-0.058-0.884-0.291-1.3-1.252-1.482c-0.233-0.052-0.728-0.078-0.99-0.078c-0.117,0-0.233-0.052-0.233-0.156
		c0-0.156,0.146-0.208,0.466-0.208c1.31,0,3.144,0.078,3.29,0.078s2.271-0.078,3.144-0.078c0.32,0,0.466,0.052,0.466,0.208
		c0,0.104-0.117,0.156-0.233,0.156c-0.204,0-0.611,0.026-0.961,0.078c-0.844,0.13-1.077,0.572-1.135,1.482
		c-0.058,0.832-0.058,1.56-0.058,5.616L78.396,21.783L78.396,21.783z"/>
	<path fill="#FFFFFF" d="M93.971,22.85c0,2.133,0,3.875,0.116,4.783c0.087,0.65,0.175,1.066,0.932,1.172
		c0.379,0.051,0.932,0.104,1.165,0.104c0.146,0,0.204,0.104,0.204,0.183c0,0.104-0.117,0.183-0.408,0.183
		c-1.427,0-3.086-0.078-3.203-0.078c-0.146,0-1.747,0.078-2.533,0.078c-0.262,0-0.408-0.053-0.408-0.183
		c0-0.077,0.058-0.183,0.204-0.183c0.233,0,0.553-0.053,0.786-0.104c0.495-0.104,0.583-0.521,0.67-1.172
		c0.116-0.908,0.146-2.65,0.146-4.783V18.95c0-3.433,0-4.057-0.058-4.758c-0.059-0.754-0.262-1.092-0.815-1.196
		c-0.291-0.052-0.611-0.078-0.786-0.078c-0.116,0-0.204-0.104-0.204-0.182c0-0.13,0.116-0.182,0.408-0.182
		c0.844,0,2.445,0.052,2.591,0.052c0.117,0,1.776-0.052,2.562-0.052c0.291,0,0.408,0.052,0.408,0.182
		c0,0.078-0.117,0.182-0.204,0.182c-0.175,0-0.35,0-0.641,0.052c-0.699,0.13-0.844,0.442-0.902,1.222
		c-0.029,0.702-0.029,1.326-0.029,4.758L93.971,22.85L93.971,22.85z"/>
	<path fill="#FFFFFF" d="M101.54,18.949c0-3.433,0-4.057-0.058-4.758c-0.059-0.754-0.204-1.118-1.048-1.222
		c-0.204-0.026-0.641-0.052-0.874-0.052c-0.087,0-0.204-0.104-0.204-0.182c0-0.13,0.117-0.182,0.408-0.182
		c1.165,0,2.766,0.052,2.911,0.052c0.495,0,6.056,0.026,6.638,0c0.495-0.026,0.931-0.026,1.165-0.104
		c0.146-0.026,0.261-0.13,0.349-0.13c0.117,0,0.174,0.104,0.174,0.208c0,0.156-0.115,0.416-0.203,1.04
		c-0.029,0.208-0.059,1.196-0.115,1.456c-0.03,0.104-0.118,0.234-0.234,0.234c-0.116,0-0.204-0.104-0.204-0.26
		c0-0.182-0.087-0.546-0.232-0.832c-0.145-0.286-0.757-0.65-1.747-0.65l-4.192-0.052c-0.146,0-0.204,0.052-0.204,0.234v6.032
		c0,0.13,0,0.208,0.175,0.208l3.494-0.026c0.437,0,0.815,0,1.165-0.025c0.611-0.053,0.96-0.131,1.194-0.391
		c0.116-0.13,0.232-0.234,0.32-0.234c0.116,0,0.146,0.078,0.146,0.183c0,0.13-0.175,0.494-0.233,1.222
		c-0.059,0.442-0.087,1.326-0.087,1.482c0,0.208-0.059,0.44-0.233,0.44c-0.146,0-0.175-0.104-0.175-0.207
		c-0.028-0.233-0.058-0.547-0.175-0.807c-0.116-0.312-0.523-0.598-1.31-0.702c-0.641-0.077-3.668-0.052-4.105-0.052
		c-0.146,0-0.175,0.052-0.175,0.208v1.769c0,2.185,0,3.926,0.116,4.783c0.087,0.65,0.233,1.066,0.932,1.172
		c0.378,0.051,0.932,0.104,1.165,0.104c0.146,0,0.204,0.104,0.204,0.183c0,0.104-0.117,0.183-0.408,0.183
		c-1.427,0-3.086-0.078-3.203-0.078c-0.146,0-1.747,0.078-2.533,0.078c-0.262,0-0.408-0.053-0.408-0.183
		c0-0.077,0.058-0.183,0.204-0.183c0.232,0,0.553-0.078,0.786-0.104c0.495-0.078,0.553-0.521,0.67-1.172
		c0.146-0.908,0.146-2.65,0.146-4.783v-3.9H101.54z"/>
	<path fill="#FFFFFF" d="M116.27,18.949c0-3.433,0-4.057-0.059-4.758c-0.059-0.754-0.203-1.118-1.049-1.222
		c-0.203-0.026-0.641-0.052-0.873-0.052c-0.088,0-0.203-0.104-0.203-0.182c0-0.13,0.115-0.182,0.406-0.182
		c1.166,0,2.824,0.052,2.971,0.052c0.174,0,5.531,0.026,6.113,0c0.496-0.026,0.961-0.104,1.164-0.13
		c0.117-0.026,0.234-0.104,0.35-0.104c0.088,0,0.117,0.104,0.117,0.208c0,0.156-0.146,0.416-0.203,1.04
		c-0.029,0.208-0.088,1.196-0.146,1.456c-0.028,0.104-0.116,0.234-0.231,0.234c-0.146,0-0.205-0.104-0.205-0.286
		c0-0.156-0.026-0.52-0.146-0.78c-0.176-0.364-0.438-0.52-1.834-0.676c-0.438-0.052-3.405-0.078-3.696-0.078
		c-0.117,0-0.146,0.078-0.146,0.234v6.005c0,0.156,0,0.234,0.146,0.234c0.319,0,3.696,0,4.278-0.052
		c0.611-0.052,0.99-0.078,1.252-0.312c0.175-0.156,0.291-0.287,0.379-0.287c0.087,0,0.146,0.053,0.146,0.183
		s-0.146,0.494-0.202,1.222c-0.06,0.442-0.117,1.274-0.117,1.431c0,0.183-0.06,0.416-0.232,0.416c-0.117,0-0.174-0.078-0.174-0.207
		c0-0.209,0-0.442-0.117-0.729c-0.088-0.312-0.32-0.571-1.311-0.676c-0.699-0.078-3.437-0.104-3.871-0.104
		c-0.146,0-0.176,0.078-0.176,0.156v1.848c0,0.754-0.029,3.328,0,3.77c0.059,1.482,0.524,1.77,3.057,1.77
		c0.67,0,1.893,0,2.562-0.234c0.671-0.26,1.021-0.65,1.164-1.534c0.06-0.261,0.117-0.338,0.265-0.338
		c0.145,0,0.174,0.182,0.174,0.338c0,0.155-0.203,1.664-0.351,2.132c-0.174,0.572-0.438,0.572-1.426,0.572
		c-1.922,0-3.405-0.053-4.455-0.078c-1.078-0.053-1.746-0.053-2.125-0.053c-0.06,0-0.553,0-1.106,0.027
		c-0.494,0.024-1.076,0.051-1.484,0.051c-0.262,0-0.406-0.051-0.406-0.182c0-0.078,0.057-0.183,0.203-0.183
		c0.232,0,0.553-0.078,0.785-0.104c0.496-0.078,0.555-0.521,0.67-1.171c0.146-0.909,0.146-2.651,0.146-4.782v-3.902H116.27z"/>
</g>
</svg>
