<?xml version="1.0" encoding="utf-8"?>
<!-- Generator: Adobe Illustrator 23.0.1, SVG Export Plug-In . SVG Version: 6.00 Build 0)  -->
<svg version="1.1" id="Layer_1" xmlns="http://www.w3.org/2000/svg" xmlns:xlink="http://www.w3.org/1999/xlink" x="0px" y="0px"
	 viewBox="0 0 784 190" style="enable-background:new 0 0 784 190;" xml:space="preserve">
<style type="text/css">
	.st0{fill:#5D0025;}
	.st1{fill:#02233B;}
	.st2{fill:#FFFFFF;}
	.st3{fill:#231F20;}
	.st4{fill:#4B1111;}
</style>
<g id="AgriLife_OnAir_4_">
	<rect y="0.11" class="st0" width="220" height="190"/>
	<g id="black_2_">
		<g>
			<g id="podcast_8_" transform="translate(15.000000, 11.000000)">
				<path id="Podcast_8_" class="st1" d="M96.1,82.96c6.19,0,11.21-4.73,11.21-10.56c0-5.83-5.02-10.56-11.21-10.56
					s-11.21,4.73-11.21,10.56C84.88,78.23,89.9,82.96,96.1,82.96L96.1,82.96z M96.1,46c-15.48,0-28.02,11.82-28.02,26.39
					c0,7.09,2.97,13.52,7.8,18.27c1.38-2.09,3.29-4.09,5.92-5.62c-3.3-3.31-5.32-7.75-5.32-12.65c0-10.21,8.79-18.49,19.62-18.49
					c10.84,0,19.62,8.28,19.62,18.49c0,4.9-2.03,9.36-5.34,12.67c2.63,1.54,4.53,3.54,5.9,5.63c4.85-4.75,7.83-11.19,7.83-18.3
					C124.12,57.82,111.57,46,96.1,46L96.1,46z M96.1,30.2c-24.74,0-44.8,18.89-44.8,42.2c0,15.21,8.54,28.54,21.35,35.96
					c-0.26-1.83-0.42-3.79-0.42-5.82c0,0-0.01-1.57,0.44-3.84c-7.96-6.3-13.02-15.74-13.02-26.3c0-18.96,16.32-34.33,36.45-34.33
					s36.45,15.37,36.45,34.33c0,10.58-5.08,20.04-13.07,26.34c0.44,2.25,0.43,3.8,0.43,3.8c0,2.05-0.17,4.02-0.42,5.86
					c12.85-7.42,21.42-20.76,21.42-36C140.9,49.09,120.84,30.2,96.1,30.2L96.1,30.2z M96.1,88.24c-8.52,0-15.42,6.5-15.42,14.52
					c0,8.02,6.9,34.26,15.42,34.26s15.42-26.24,15.42-34.26S104.61,88.24,96.1,88.24L96.1,88.24z"/>
			</g>
		</g>
		<g>
			<g id="podcast_7_" transform="translate(15.000000, 11.000000)">
				<path id="Podcast_7_" class="st2" d="M96.1,82.96c6.19,0,11.21-4.73,11.21-10.56c0-5.83-5.02-10.56-11.21-10.56
					s-11.21,4.73-11.21,10.56C84.88,78.23,89.9,82.96,96.1,82.96L96.1,82.96z M96.1,46c-15.48,0-28.02,11.82-28.02,26.39
					c0,7.09,2.97,13.52,7.8,18.27c1.38-2.09,3.29-4.09,5.92-5.62c-3.3-3.31-5.32-7.75-5.32-12.65c0-10.21,8.79-18.49,19.62-18.49
					c10.84,0,19.62,8.28,19.62,18.49c0,4.9-2.03,9.36-5.34,12.67c2.63,1.54,4.53,3.54,5.9,5.63c4.85-4.75,7.83-11.19,7.83-18.3
					C124.12,57.82,111.57,46,96.1,46L96.1,46z M96.1,30.2c-24.74,0-44.8,18.89-44.8,42.2c0,15.21,8.54,28.54,21.35,35.96
					c-0.26-1.83-0.42-3.79-0.42-5.82c0,0-0.01-1.57,0.44-3.84c-7.96-6.3-13.02-15.74-13.02-26.3c0-18.96,16.32-34.33,36.45-34.33
					s36.45,15.37,36.45,34.33c0,10.58-5.08,20.04-13.07,26.34c0.44,2.25,0.43,3.8,0.43,3.8c0,2.05-0.17,4.02-0.42,5.86
					c12.85-7.42,21.42-20.76,21.42-36C140.9,49.09,120.84,30.2,96.1,30.2L96.1,30.2z M96.1,88.24c-8.52,0-15.42,6.5-15.42,14.52
					c0,8.02,6.9,34.26,15.42,34.26s15.42-26.24,15.42-34.26S104.61,88.24,96.1,88.24L96.1,88.24z"/>
			</g>
		</g>
	</g>
	<g id="AgriLife_Today_19_">
		<g>
			<path class="st3" d="M761,135H546V53h215V135z M548,133h211V55H548V133z"/>
		</g>
		<g>
			<g>
				<g>
					<rect x="561.83" y="78.44" class="st2" width="182.3" height="52.16"/>
				</g>
				<g>
					<path class="st1" d="M590.33,118.01h-6.44c-6.22,0-9.3-2.75-9.3-8.3V80.84c0-5.56,3.08-8.3,9.3-8.3h6.44
						c6.22,0,9.3,2.75,9.3,8.3v28.87C599.63,115.26,596.55,118.01,590.33,118.01z M587.83,80.2h-1.43c-1.22,0-1.79,0.51-1.79,1.6
						v26.96c0,1.08,0.57,1.6,1.79,1.6h1.43c1.22,0,1.79-0.51,1.79-1.6V81.79C589.62,80.71,589.04,80.2,587.83,80.2z"/>
				</g>
				<g>
					<path class="st1" d="M622.8,117.63l-6.37-24.34l0.14,11.37l0.14,12.97h-8.65V72.92h10.23l5.79,22.17l-0.14-12.9l-0.07-9.26
						h8.65v44.71H622.8z"/>
				</g>
				<g>
					<path class="st1" d="M671.28,117.63l-0.79-6.51h-6.29l-0.71,6.51h-9.08l6.58-44.71h13.66l6.58,44.71H671.28z M665.13,103.32
						h4.43l-2.22-19.48L665.13,103.32z"/>
				</g>
				<g>
					<path class="st1" d="M698.46,117.63h-10.01V72.92h10.01V117.63z"/>
				</g>
				<g>
					<path class="st1" d="M731.43,102.23v15.39h-10.01V102.3c0-1.09-0.57-1.6-1.79-1.6h-2.5v16.93h-10.01V72.92h14.95
						c6.22,0,9.3,2.75,9.3,8.3v8.62c0,3.83-1.57,5.75-4.29,6.64C730.14,97.25,731.43,98.98,731.43,102.23z M719.56,80.71h-2.43V93.1
						h2.43c1.22,0,1.79-0.51,1.79-1.6v-9.2C721.34,81.22,720.77,80.71,719.56,80.71z"/>
				</g>
			</g>
		</g>
		<g>
			<g>
				<path class="st4" d="M276.82,76.83c0.76-1.87,1.01-2.21,1.39-2.21c0.38,0,0.63,0.28,1.39,2.04
					c0.95,2.15,10.89,25.51,14.75,34.11c2.28,5.03,4.12,5.94,5.45,6.28c0.95,0.28,1.9,0.34,2.53,0.34c0.38,0,0.63,0.06,0.63,0.34
					c0,0.34-0.57,0.45-1.27,0.45c-0.95,0-5.57,0-9.94-0.11c-1.2-0.06-1.9-0.06-1.9-0.4c0-0.23,0.19-0.34,0.44-0.4
					c0.38-0.11,0.76-0.62,0.38-1.53l-5.89-13.92c-0.13-0.23-0.25-0.34-0.57-0.34h-13.61c-0.32,0-0.51,0.17-0.63,0.45l-3.8,10.01
					c-0.57,1.41-0.89,2.77-0.89,3.79c0,1.13,1.33,1.64,2.41,1.64h0.63c0.44,0,0.63,0.11,0.63,0.34c0,0.34-0.38,0.45-0.95,0.45
					c-1.52,0-4.24-0.17-4.94-0.17c-0.7,0-4.18,0.17-7.16,0.17c-0.82,0-1.2-0.11-1.2-0.45c0-0.23,0.25-0.34,0.57-0.34
					c0.44,0,1.33-0.06,1.84-0.11c2.91-0.34,4.18-2.49,5.32-5.32L276.82,76.83z M283.4,99.46c0.32,0,0.32-0.17,0.25-0.4l-6.02-15.27
					c-0.32-0.85-0.63-0.85-0.95,0l-5.57,15.27c-0.13,0.28,0,0.4,0.19,0.4H283.4z"/>
				<path class="st4" d="M334.88,105.91c0-3.9-0.13-4.47-2.41-4.87c-0.44-0.06-1.39-0.11-1.9-0.11c-0.19,0-0.44-0.23-0.44-0.4
					c0-0.34,0.25-0.4,0.89-0.4c2.53,0,6.27,0.11,6.59,0.11c0.25,0,3.74-0.11,5.45-0.11c0.63,0,0.89,0.06,0.89,0.4
					c0,0.17-0.25,0.4-0.44,0.4c-0.38,0-0.76,0-1.39,0.11c-1.52,0.23-1.96,0.96-2.09,2.66c-0.06,1.53-0.06,2.94-0.06,4.98v5.37
					c0,2.21-0.06,2.26-0.76,2.6c-3.55,1.64-8.61,2.15-11.84,2.15c-4.24,0-12.16-0.45-18.36-5.15c-3.42-2.54-6.65-7.69-6.65-13.69
					c0-7.69,4.37-13.12,9.31-15.78c5-2.71,10.58-3.05,14.82-3.05c3.55,0,7.47,0.57,8.55,0.79c1.14,0.23,3.1,0.51,4.5,0.51
					c0.57,0,0.7,0.23,0.7,0.45c0,0.68-0.32,1.98-0.32,6.79c0,0.79-0.25,1.02-0.63,1.02c-0.32,0-0.38-0.28-0.38-0.74
					c-0.06-0.62-0.38-2.04-1.27-3.17c-1.39-1.81-5.64-3.73-12.85-3.73c-3.36,0-7.41,0.23-11.65,3.11c-3.23,2.21-5.51,6.5-5.51,12.1
					c0,6.79,3.93,11.65,5.89,13.29c4.43,3.68,9.12,5.03,14.25,5.03c1.96,0,4.56-0.17,6.02-0.91c0.7-0.34,1.14-0.57,1.14-1.47V105.91
					z"/>
				<path class="st4" d="M354.83,95.73c0-7.47,0-8.82-0.13-10.35c-0.13-1.64-0.44-2.43-2.28-2.66c-0.44-0.06-1.39-0.11-1.9-0.11
					c-0.19,0-0.44-0.23-0.44-0.4c0-0.28,0.25-0.4,0.89-0.4c2.53,0,6.27,0.11,6.59,0.11c0.57,0,5.26-0.11,6.97-0.11
					c3.55,0,7.47,0.28,10.38,2.09c1.39,0.91,3.86,3.22,3.86,6.56c0,3.56-1.65,7.01-6.84,10.97c4.56,5.09,8.42,9.45,11.65,12.44
					c2.98,2.71,4.81,3.17,6.21,3.34c1.08,0.17,1.65,0.17,1.96,0.17c0.32,0,0.51,0.23,0.51,0.4c0,0.28-0.32,0.4-1.33,0.4h-3.48
					c-3.17,0-4.56-0.28-5.95-0.96c-2.41-1.13-4.43-3.45-7.6-7.07c-2.34-2.6-4.81-5.71-6.02-7.01c-0.25-0.23-0.38-0.28-0.76-0.28
					l-7.09-0.11c-0.25,0-0.38,0.11-0.38,0.4v1.13c0,4.64,0,8.37,0.25,10.35c0.19,1.41,0.51,2.32,2.22,2.54
					c0.76,0.11,1.96,0.23,2.47,0.23c0.38,0,0.44,0.23,0.44,0.4c0,0.23-0.25,0.4-0.89,0.4c-3.04,0-6.59-0.17-6.84-0.17
					c-0.06,0-3.8,0.17-5.51,0.17c-0.57,0-0.89-0.11-0.89-0.4c0-0.17,0.13-0.4,0.44-0.4c0.51,0,1.2-0.11,1.71-0.23
					c1.08-0.23,1.2-1.13,1.46-2.54c0.32-1.98,0.32-5.77,0.32-10.41V95.73z M359.65,99.8c0,0.28,0.13,0.45,0.38,0.62
					c0.82,0.4,3.67,0.74,6.14,0.74c1.33,0,2.85-0.06,4.18-0.85c1.9-1.13,3.36-3.68,3.36-7.35c0-6-3.67-9.45-9.62-9.45
					c-1.65,0-3.42,0.17-3.99,0.28c-0.25,0.11-0.44,0.28-0.44,0.56V99.8z"/>
				<path class="st4" d="M400.55,104.21c0,4.64,0,8.43,0.25,10.41c0.19,1.41,0.38,2.32,2.03,2.54c0.82,0.11,2.03,0.23,2.53,0.23
					c0.32,0,0.44,0.23,0.44,0.4c0,0.23-0.25,0.4-0.89,0.4c-3.1,0-6.71-0.17-6.97-0.17c-0.32,0-3.8,0.17-5.51,0.17
					c-0.57,0-0.89-0.11-0.89-0.4c0-0.17,0.13-0.4,0.44-0.4c0.51,0,1.2-0.11,1.71-0.23c1.08-0.23,1.27-1.13,1.46-2.54
					c0.25-1.98,0.32-5.77,0.32-10.41v-8.48c0-7.47,0-8.82-0.13-10.35c-0.13-1.64-0.57-2.38-1.77-2.6c-0.63-0.11-1.33-0.17-1.71-0.17
					c-0.25,0-0.44-0.23-0.44-0.4c0-0.28,0.25-0.4,0.89-0.4c1.84,0,5.32,0.11,5.64,0.11c0.25,0,3.86-0.11,5.57-0.11
					c0.63,0,0.89,0.11,0.89,0.4c0,0.17-0.25,0.4-0.44,0.4c-0.38,0-0.76,0-1.39,0.11c-1.52,0.28-1.84,0.96-1.96,2.66
					c-0.06,1.53-0.06,2.88-0.06,10.35V104.21z"/>
				<path class="st4" d="M422.78,101.89c0,8.32,0.25,11.94,1.39,12.95c1.01,0.91,2.66,1.3,7.6,1.3c3.36,0,6.14-0.06,7.66-1.7
					c0.82-0.91,1.46-2.32,1.65-3.39c0.06-0.45,0.19-0.74,0.57-0.74c0.32,0,0.38,0.23,0.38,0.85c0,0.62-0.44,4.02-0.95,5.66
					c-0.44,1.3-0.63,1.53-3.99,1.53c-4.56,0-7.85-0.11-10.51-0.17c-2.66-0.11-4.62-0.17-6.46-0.17c-0.25,0-1.33,0.06-2.6,0.06
					c-1.27,0.06-2.66,0.11-3.61,0.11c-0.7,0-1.01-0.11-1.01-0.45c0-0.17,0.13-0.34,0.51-0.34c0.57,0,1.33-0.11,1.9-0.23
					c1.27-0.23,1.58-1.47,1.84-3.11c0.32-2.38,0.32-6.84,0.32-12.27v-9.96c0-8.82,0-10.41-0.13-12.22
					c-0.13-1.92-0.63-2.83-2.72-3.22c-0.51-0.11-1.58-0.17-2.15-0.17c-0.25,0-0.51-0.11-0.51-0.34c0-0.34,0.32-0.45,1.01-0.45
					c2.85,0,6.84,0.17,7.16,0.17c0.32,0,4.94-0.17,6.84-0.17c0.7,0,1.01,0.11,1.01,0.45c0,0.23-0.25,0.34-0.51,0.34
					c-0.44,0-1.33,0.06-2.09,0.17c-1.84,0.28-2.34,1.24-2.47,3.22c-0.13,1.81-0.13,3.39-0.13,12.22V101.89z"/>
				<path class="st4" d="M456.66,104.21c0,4.64,0,8.43,0.25,10.41c0.19,1.41,0.38,2.32,2.03,2.54c0.82,0.11,2.03,0.23,2.53,0.23
					c0.32,0,0.44,0.23,0.44,0.4c0,0.23-0.25,0.4-0.89,0.4c-3.1,0-6.71-0.17-6.97-0.17c-0.32,0-3.8,0.17-5.51,0.17
					c-0.57,0-0.89-0.11-0.89-0.4c0-0.17,0.13-0.4,0.44-0.4c0.51,0,1.2-0.11,1.71-0.23c1.08-0.23,1.27-1.13,1.46-2.54
					c0.25-1.98,0.32-5.77,0.32-10.41v-8.48c0-7.47,0-8.82-0.13-10.35c-0.13-1.64-0.57-2.38-1.77-2.6c-0.63-0.11-1.33-0.17-1.71-0.17
					c-0.25,0-0.44-0.23-0.44-0.4c0-0.28,0.25-0.4,0.89-0.4c1.84,0,5.32,0.11,5.64,0.11c0.25,0,3.86-0.11,5.57-0.11
					c0.63,0,0.89,0.11,0.89,0.4c0,0.17-0.25,0.4-0.44,0.4c-0.38,0-0.76,0-1.39,0.11c-1.52,0.28-1.84,0.96-1.96,2.66
					c-0.06,1.53-0.06,2.88-0.06,10.35V104.21z"/>
				<path class="st4" d="M473.06,95.73c0-7.47,0-8.82-0.13-10.35c-0.13-1.64-0.44-2.43-2.28-2.66c-0.44-0.06-1.39-0.11-1.9-0.11
					c-0.19,0-0.44-0.23-0.44-0.4c0-0.28,0.25-0.4,0.89-0.4c2.53,0,6.02,0.11,6.33,0.11c1.08,0,13.17,0.06,14.44,0
					c1.08-0.06,2.03-0.06,2.53-0.23c0.32-0.06,0.57-0.28,0.76-0.28c0.25,0,0.38,0.23,0.38,0.45c0,0.34-0.25,0.9-0.44,2.26
					c-0.06,0.45-0.13,2.6-0.25,3.17c-0.06,0.23-0.25,0.51-0.51,0.51s-0.44-0.23-0.44-0.57c0-0.4-0.19-1.19-0.51-1.81
					c-0.32-0.62-1.65-1.41-3.8-1.41l-9.12-0.11c-0.32,0-0.44,0.11-0.44,0.51v13.12c0,0.28,0,0.45,0.38,0.45l7.6-0.06
					c0.95,0,1.77,0,2.53-0.06c1.33-0.11,2.09-0.28,2.6-0.85c0.25-0.28,0.51-0.51,0.7-0.51c0.25,0,0.32,0.17,0.32,0.4
					c0,0.28-0.38,1.08-0.51,2.66c-0.13,0.96-0.19,2.88-0.19,3.22c0,0.45-0.13,0.96-0.51,0.96c-0.32,0-0.38-0.23-0.38-0.45
					c-0.06-0.51-0.13-1.19-0.38-1.75c-0.25-0.68-1.14-1.3-2.85-1.53c-1.39-0.17-7.98-0.11-8.93-0.11c-0.32,0-0.38,0.11-0.38,0.45
					v3.85c0,4.75,0,8.54,0.25,10.41c0.19,1.41,0.51,2.32,2.03,2.54c0.82,0.11,2.03,0.23,2.53,0.23c0.32,0,0.44,0.23,0.44,0.4
					c0,0.23-0.25,0.4-0.89,0.4c-3.1,0-6.71-0.17-6.97-0.17c-0.32,0-3.8,0.17-5.51,0.17c-0.57,0-0.89-0.11-0.89-0.4
					c0-0.17,0.13-0.4,0.44-0.4c0.51,0,1.2-0.17,1.71-0.23c1.08-0.17,1.2-1.13,1.46-2.54c0.32-1.98,0.32-5.77,0.32-10.41V95.73z"/>
				<path class="st4" d="M505.04,95.73c0-7.47,0-8.82-0.13-10.35c-0.13-1.64-0.44-2.43-2.28-2.66c-0.44-0.06-1.39-0.11-1.9-0.11
					c-0.19,0-0.44-0.23-0.44-0.4c0-0.28,0.25-0.4,0.89-0.4c2.53,0,6.14,0.11,6.46,0.11c0.38,0,12.03,0.06,13.3,0
					c1.08-0.06,2.09-0.23,2.53-0.28c0.25-0.06,0.51-0.23,0.76-0.23c0.19,0,0.25,0.23,0.25,0.45c0,0.34-0.32,0.9-0.44,2.26
					c-0.06,0.45-0.19,2.6-0.32,3.17c-0.06,0.23-0.25,0.51-0.51,0.51c-0.32,0-0.44-0.23-0.44-0.62c0-0.34-0.06-1.13-0.32-1.7
					c-0.38-0.79-0.95-1.13-3.99-1.47c-0.95-0.11-7.41-0.17-8.04-0.17c-0.25,0-0.32,0.17-0.32,0.51v13.07c0,0.34,0,0.51,0.32,0.51
					c0.7,0,8.04,0,9.31-0.11c1.33-0.11,2.15-0.17,2.72-0.68c0.38-0.34,0.63-0.62,0.82-0.62c0.19,0,0.32,0.11,0.32,0.4
					c0,0.28-0.32,1.08-0.44,2.66c-0.13,0.96-0.25,2.77-0.25,3.11c0,0.4-0.13,0.91-0.51,0.91c-0.25,0-0.38-0.17-0.38-0.45
					c0-0.45,0-0.96-0.25-1.58c-0.19-0.68-0.7-1.25-2.85-1.47c-1.52-0.17-7.47-0.23-8.42-0.23c-0.32,0-0.38,0.17-0.38,0.34v4.02
					c0,1.64-0.06,7.24,0,8.2c0.13,3.22,1.14,3.85,6.65,3.85c1.46,0,4.12,0,5.57-0.51c1.46-0.57,2.22-1.41,2.53-3.34
					c0.13-0.57,0.25-0.74,0.57-0.74c0.32,0,0.38,0.4,0.38,0.74c0,0.34-0.44,3.62-0.76,4.64c-0.38,1.25-0.95,1.25-3.1,1.25
					c-4.18,0-7.41-0.11-9.69-0.17c-2.34-0.11-3.8-0.11-4.62-0.11c-0.13,0-1.2,0-2.41,0.06c-1.08,0.06-2.34,0.11-3.23,0.11
					c-0.57,0-0.89-0.11-0.89-0.4c0-0.17,0.13-0.4,0.44-0.4c0.51,0,1.2-0.17,1.71-0.23c1.08-0.17,1.2-1.13,1.46-2.54
					c0.32-1.98,0.32-5.77,0.32-10.41V95.73z"/>
			</g>
		</g>
	</g>
</g>
</svg>
