<?xml version="1.0" encoding="utf-8"?>
<!-- Generator: Adobe Illustrator 23.0.1, SVG Export Plug-In . SVG Version: 6.00 Build 0)  -->
<svg version="1.1" id="Layer_1" xmlns="http://www.w3.org/2000/svg" xmlns:xlink="http://www.w3.org/1999/xlink" x="0px" y="0px"
	 viewBox="0 0 88 88" style="enable-background:new 0 0 88 88;" xml:space="preserve">
<style type="text/css">
	.st0{fill-rule:evenodd;clip-rule:evenodd;}
</style>
<path d="M44,4c22.06,0,40,17.94,40,40S66.06,84,44,84C21.94,84,4,66.06,4,44S21.94,4,44,4 M44,0C19.7,0,0,19.7,0,44s19.7,44,44,44
	c24.3,0,44-19.7,44-44S68.3,0,44,0L44,0z"/>
<path class="st0" d="M61.05,33.69c1.78-1.12,3.15-2.9,3.79-5.03c-1.67,1.04-3.51,1.8-5.47,2.2C57.8,29.1,55.56,28,53.08,28
	c-4.76,0-8.61,4.07-8.61,9.09c0,0.71,0.07,1.41,0.22,2.07c-7.16-0.38-13.51-3.99-17.76-9.5c-0.74,1.35-1.17,2.91-1.17,4.57
	c0,3.15,1.52,5.93,3.83,7.57c-1.41-0.05-2.74-0.46-3.9-1.14v0.11c0,4.4,2.97,8.08,6.91,8.91C31.88,49.9,31.12,50,30.33,50
	c-0.55,0-1.1-0.05-1.62-0.16c1.09,3.61,4.28,6.24,8.05,6.31c-2.95,2.44-6.67,3.89-10.7,3.89c-0.7,0-1.38-0.04-2.06-0.12
	C27.81,62.49,32.34,64,37.21,64c15.85,0,24.51-13.85,24.51-25.86c0-0.4,0-0.79-0.02-1.18c1.68-1.28,3.15-2.88,4.3-4.71
	C64.45,32.98,62.79,33.47,61.05,33.69L61.05,33.69z M61.05,33.69"/>
</svg>
