<?xml version="1.0" encoding="utf-8"?>
<!-- Generator: Adobe Illustrator 23.0.1, SVG Export Plug-In . SVG Version: 6.00 Build 0)  -->
<svg version="1.1" id="Layer_1" xmlns="http://www.w3.org/2000/svg" xmlns:xlink="http://www.w3.org/1999/xlink" x="0px" y="0px"
	 viewBox="0 0 88 88" style="enable-background:new 0 0 88 88;" xml:space="preserve">
<style type="text/css">
	.st0{fill-rule:evenodd;clip-rule:evenodd;}
</style>
<path d="M44,4c22.06,0,40,17.94,40,40S66.06,84,44,84C21.94,84,4,66.06,4,44S21.94,4,44,4 M44,0C19.7,0,0,19.7,0,44s19.7,44,44,44
	c24.3,0,44-19.7,44-44S68.3,0,44,0L44,0z"/>
<path class="st0" d="M64,51.13V36.87c0,0,0-6.87-6.89-6.87H30.89c0,0-6.89,0-6.89,6.87v14.26c0,0,0,6.87,6.89,6.87h26.22
	C57.11,58,64,58,64,51.13 M51.77,44.02l-13.1,7.67V36.35L51.77,44.02"/>
</svg>
